<svg width="98" height="98" viewBox="0 0 98 98" fill="none" xmlns="http://www.w3.org/2000/svg">
<path d="M63.6974 85.2262L19.979 18.4036L6.79228 28.6632C-2.12779 34.6648 -1.15114 52.0407 8.50379 68.9704L8.50976 68.9754C9.41033 70.5485 10.3762 72.1156 11.4185 73.6752C23.7309 91.9804 41.6204 101.512 51.3718 94.9513C51.8158 94.6552 52.2231 94.3186 52.6125 93.9676L63.6964 85.2153L63.6974 85.2262Z" fill="#0EAB4B"/>
<path d="M59.4311 39.9592C47.1187 21.6541 29.075 12.2363 19.1226 18.9321C16.5462 20.6613 14.7635 23.3144 13.7517 26.6021C10.8585 36.0003 14.2692 50.638 23.3934 64.1932C33.1546 78.704 46.526 87.6348 56.597 87.3725C59.23 87.304 61.6321 86.6143 63.691 85.2213C73.6434 78.5255 71.7326 58.2654 59.425 39.9544L59.4311 39.9592ZM61.0923 79.8039C60.8198 80.0007 60.5405 80.1819 60.2601 80.352C60.0333 80.5666 59.7889 80.7664 59.5372 80.9502C58.9106 81.4068 58.22 81.7707 57.4754 82.0302C49.7574 84.7806 36.606 76.9831 26.6029 63.2658C26.5339 63.179 26.476 63.0912 26.418 63.0034C26.0052 62.433 25.6091 61.8664 25.2122 61.2891C24.9931 60.9583 24.7742 60.6278 24.5551 60.297C24.336 59.9664 24.123 59.6407 23.9147 59.3088C23.5624 58.7382 23.204 58.1625 22.8676 57.5847C22.6103 57.1422 22.3469 56.6949 22.0994 56.2405C21.959 55.9848 21.8126 55.724 21.6725 55.468C15.7503 44.478 14.2053 33.8828 17.9328 28.4896C18.1689 28.0322 18.4239 27.6003 18.7207 27.2032C19.3574 26.2836 20.1278 25.494 21.0157 24.8414C29.1087 18.9309 44.6324 26.4651 55.7009 41.6408C66.7643 56.8228 69.1813 73.9103 61.0923 79.8039Z" fill="#00FF63"/>
<path d="M61.0929 79.8039C60.8205 80.0008 60.5411 80.182 60.2607 80.352C66.5427 74.5348 63.3553 58.6878 52.7755 44.1849C41.8197 29.1523 27.0778 21.2287 19.8459 26.4947C19.5273 26.7236 19.2373 26.9663 18.9614 27.2404C18.8771 27.221 18.7988 27.2067 18.7192 27.1815C19.3559 26.2618 20.1263 25.4722 21.0142 24.8196C29.1094 18.931 44.6331 26.4652 55.7015 41.6408C66.765 56.8228 69.182 73.9104 61.0929 79.8039Z" fill="#014830"/>
<path d="M59.557 81.194C58.6834 81.7195 57.7329 82.1188 56.7333 82.3835C48.0015 84.7337 34.9728 77.4084 25.4926 64.1152C25.0848 63.539 24.6941 62.9662 24.3022 62.3824C24.0863 62.0478 23.8706 61.7133 23.6547 61.3788C23.4387 61.0443 23.2289 60.7145 23.0241 60.3787C22.6776 59.8009 22.3253 59.218 21.995 58.6326C21.7428 58.1842 21.4841 57.7308 21.2419 57.27C21.1045 57.0106 20.9612 56.7461 20.8238 56.4867C15.4194 45.8787 14.1697 35.3023 17.5897 28.8941C17.9131 28.4283 18.267 27.998 18.6639 27.6133C18.9501 27.3263 19.2504 27.0713 19.5794 26.8299C27.0485 21.2757 41.8736 29.0862 52.7079 44.2783C63.1601 58.9363 66.0729 75.1168 59.5586 81.2163L59.557 81.194Z" fill="#0EAB4B"/>
<mask id="mask0_1314_311" style="mask-type:luminance" maskUnits="userSpaceOnUse" x="48" y="0" width="50" height="58">
<path d="M61.4561 -5.21601e-06L48.7803 47.3068L85.3242 57.0987L98 9.79192L61.4561 -5.21601e-06Z" fill="white"/>
</mask>
<g mask="url(#mask0_1314_311)">
<path d="M81.951 5.80725L56.0767 46.661L65.0382 51.3576C70.5832 54.7699 79.9168 49.8749 86.8282 40.3082L86.8295 40.3034C87.471 39.4126 88.0926 38.4873 88.691 37.5219C95.6946 26.1451 96.4636 13.8937 90.4021 10.1634C90.1276 9.99273 89.84 9.85258 89.5487 9.72601L81.9451 5.81057L81.951 5.80725Z" fill="#0EAB4B"/>
<path d="M58.0677 19.5085C51.0642 30.8851 50.3965 43.193 56.5829 47.0003C58.1821 47.9869 60.0916 48.3045 62.1576 48.0379C68.0637 47.2765 75.2773 41.7262 80.462 33.2978C86.0136 24.279 87.5841 14.6688 84.9146 9.18305C84.2166 7.74887 83.2342 6.59756 81.95 5.81184C75.7636 2.00438 65.0744 8.13751 58.0664 19.513L58.0677 19.5085ZM79.6152 8.60272C79.7922 8.70347 79.962 8.81208 80.1262 8.924C80.3013 8.99515 80.4726 9.07991 80.6371 9.1725C81.0459 9.40337 81.4197 9.6928 81.7492 10.0383C85.2005 13.6031 84.1996 22.8078 79.1462 31.7613C79.1154 31.821 79.0817 31.8751 79.0478 31.929C78.8369 32.2996 78.6239 32.6598 78.405 33.0235C78.2777 33.227 78.1503 33.4307 78.023 33.6345C77.8957 33.8382 77.7694 34.0372 77.6389 34.2351C77.4126 34.5725 77.1849 34.9142 76.951 35.2448C76.7716 35.4976 76.591 35.7549 76.4026 36.0053C76.2968 36.1467 76.1896 36.2926 76.0838 36.4343C71.5105 42.4541 66.0573 45.9623 62.1497 45.2598C61.8385 45.2444 61.5366 45.212 61.2432 45.1481C60.5765 45.0277 59.9481 44.8011 59.3658 44.4751C54.0784 41.4957 54.3394 31.0495 59.93 21.1431C65.5249 11.2379 74.3384 5.62126 79.6152 8.60272Z" fill="#FFFCF8"/>
<path d="M79.6146 8.60278C79.7915 8.70354 79.9613 8.81215 80.1255 8.92407C75.3438 6.91974 67.4072 12.65 62.0652 22.1183C56.5255 31.9267 55.8538 42.0396 60.5698 44.7057C60.7759 44.824 60.9823 44.923 61.2028 45.0063C61.2134 45.0578 61.225 45.1044 61.2309 45.1546C60.5645 45.0344 59.936 44.8076 59.3537 44.4818C54.0777 41.4958 54.3388 31.0494 59.9294 21.1431C65.5243 11.238 74.3375 5.62135 79.6146 8.60278Z" fill="#014830"/>
<path d="M80.1289 8.9297C80.6144 9.2733 81.0507 9.69112 81.4272 10.1705C84.734 14.3468 83.8991 23.3485 79.0505 31.9348C78.8396 32.3054 78.6266 32.6656 78.408 33.0291C78.2806 33.2328 78.1533 33.4366 78.026 33.64C77.8984 33.8438 77.7724 34.043 77.6416 34.2409C77.4153 34.5781 77.1879 34.92 76.9537 35.2503C76.7744 35.5031 76.594 35.7605 76.4053 36.0109C76.2995 36.1523 76.1926 36.2984 76.0867 36.4398C71.7093 42.1095 66.3704 45.498 62.1527 45.2656C61.8282 45.2078 61.516 45.1242 61.2178 45.0054C60.9973 44.9221 60.7909 44.8231 60.5848 44.7048C55.8688 42.0387 56.5392 31.93 62.0802 22.1173C67.4268 12.6502 75.3588 6.91873 80.1406 8.92307L80.1289 8.9297Z" fill="#0EAB4B"/>
</g>
</svg>
