<?xml version="1.0" encoding="UTF-8"?>
<!DOCTYPE svg PUBLIC "-//W3C//DTD SVG 1.1//EN" "http://www.w3.org/Graphics/SVG/1.1/DTD/svg11.dtd">
<!-- Creator: CorelDRAW -->
<svg xmlns="http://www.w3.org/2000/svg" xml:space="preserve" width="16.3165mm" height="16.3165mm" version="1.1" style="shape-rendering:geometricPrecision; text-rendering:geometricPrecision; image-rendering:optimizeQuality; fill-rule:evenodd; clip-rule:evenodd"
viewBox="0 0 53.79 53.79"
 xmlns:xlink="http://www.w3.org/1999/xlink"
 xmlns:xodm="http://www.corel.com/coreldraw/odm/2003">
 <defs>
  <style type="text/css">
   <![CDATA[
    .fil0 {fill:white}
   ]]>
  </style>
 </defs>
 <g id="Layer_x0020_1">
  <metadata id="CorelCorpID_0Corel-Layer"/>
  <path class="fil0" d="M26.89 0c14.85,0 26.89,12.04 26.89,26.89 0,14.85 -12.04,26.89 -26.89,26.89 -14.85,0 -26.89,-12.04 -26.89,-26.89 0,-14.85 12.04,-26.89 26.89,-26.89zm-11.24 19.81c1.77,0 3.22,1.45 3.22,3.22l0 16.1c0,1.77 -1.45,3.22 -3.22,3.22 -1.77,0 -3.22,-1.45 -3.22,-3.22l0 -16.1c0,-1.77 1.45,-3.22 3.22,-3.22zm11.5 -4.55l0 0c1.77,0 3.22,1.45 3.22,3.22l0 20.65c0,1.77 -1.45,3.22 -3.22,3.22l0 0c-1.77,0 -3.22,-1.45 -3.22,-3.22l0 -20.65c0,-1.77 1.45,-3.22 3.22,-3.22zm10.97 -3.83l0 0c1.77,0 3.22,1.45 3.22,3.22l0 24.48c0,1.77 -1.45,3.22 -3.22,3.22l0 0c-1.77,0 -3.22,-1.45 -3.22,-3.22l0 -24.48c0,-1.77 1.45,-3.22 3.22,-3.22z"/>
 </g>
</svg>
