<?xml version="1.0" encoding="UTF-8"?>
<!DOCTYPE svg PUBLIC "-//W3C//DTD SVG 1.1//EN" "http://www.w3.org/Graphics/SVG/1.1/DTD/svg11.dtd">
<!-- Creator: CorelDRAW -->
<svg xmlns="http://www.w3.org/2000/svg" xml:space="preserve" width="92.0949mm" height="77.535mm" version="1.1" style="shape-rendering:geometricPrecision; text-rendering:geometricPrecision; image-rendering:optimizeQuality; fill-rule:evenodd; clip-rule:evenodd"
viewBox="0 0 53405.73 44962.46"
 xmlns:xlink="http://www.w3.org/1999/xlink"
 xmlns:xodm="http://www.corel.com/coreldraw/odm/2003">
 <defs>
  <style type="text/css">
   <![CDATA[
    .fil0 {fill:white}
   ]]>
  </style>
 </defs>
 <g id="Layer_x0020_1">
  <metadata id="CorelCorpID_0Corel-Layer"/>
  <path class="fil0" d="M-0 20775.28c0,712.06 444.9,1134.75 1007.98,1443.25 250.92,137.49 569.87,238.63 846.3,327.18l2672.12 848.28c156.05,44.25 276.55,85.77 437.88,135.81l887.07 286.35c580.83,193.28 1181.72,361.91 1755.93,564.94 376.88,133.26 745.05,205.52 1110.39,349.97 471.46,186.44 1815.08,575.38 2446.59,786.92 154.78,51.78 296.15,89.36 456.26,143.52l886.14 287.28c143.35,50.45 791.1,276.55 896.93,276.55 104.96,0 188.41,-84.72 261.94,-129.14l3136.38 -1948.69c814.64,-481.66 1610.44,-995.45 2411.8,-1499.73 165.68,-104.32 319.58,-188.47 485.2,-297.14l5788.9 -3598.79c637.02,-418.51 1293.46,-781.53 1929.73,-1199.52l1448.47 -898.44c972.84,-582.57 1918.48,-1214.89 2894.57,-1799.31 77.76,-46.57 156.63,-97.13 240.95,-150.19l1205.49 -750.27c170.37,-104.85 327.29,-192.82 484.74,-297.6l963.33 -601.24c768.54,-460.21 1512.67,-960.72 2280.68,-1422.32l615.16 -375.72c312.97,-208.18 651.28,-392.53 964.84,-599.85l3379.01 -2097.15c871.76,-536.35 1742.89,-1266.79 2827.3,-1266.79 185.05,0 417.24,132.16 417.24,312.91 0,423.15 -519.13,761.58 -775.73,1023.58 -317.73,324.4 -1113.29,977.42 -1447.14,1317.07 -70.28,71.5 -94.76,82.69 -168.52,144.39l-470.76 441.94c-294.76,259.56 -677.26,646.76 -960.2,865.21 -70.98,54.8 -98.47,92.67 -160.4,152.51l-640.56 585c-73.82,61.7 -98.29,72.95 -168.58,144.39l-951.27 874.14c-263.27,243.56 -556.82,472.27 -808.61,729.92l-2398.87 2190.68c-66.8,61.82 -102.47,75.33 -170.32,142.6l-518.02 472.91c-23.37,19.95 -21.11,17.45 -41.81,36.48 -32.53,29.92 -47.26,45.99 -78.58,77.82 -67.5,68.6 -85.94,86.93 -164.98,147.93 -71.04,54.86 -98.47,92.67 -160.46,152.51l-626.7 572.82c-32.82,30.21 -34.21,30.33 -70.11,60.31l-3780.42 3442.92c-302.65,233.7 -811.57,764.19 -1117.99,1020.33l-3050.21 2764.96c-55.15,55.5 -98.06,106.18 -157.27,155.64 -74,61.88 -98,72.43 -168.4,144.51 -107.05,109.48 -200.76,174.72 -312.45,287.34l-1827.67 1666.63c-20.35,17.74 -18.32,15.6 -42.45,35.78 -4.18,3.48 -10.15,8.29 -14.32,11.77l-4035.63 3683.17c-109.19,96.15 -424.2,323.12 -461.48,451.22l-368.24 4534.23c-28.53,198.85 -17.69,382.97 -44.3,581.58 -70.98,529.56 -86.06,1143.04 -145.5,1679.85l-134.71 1716.73c1.28,291.98 -27.89,551.19 -66.63,819.98 -8.58,59.61 -23.37,232.31 -23.89,284.56 -1.68,162.78 345.62,625.65 462.41,741.23 645.31,638.29 1365.02,735.66 2184.54,293.43 329.61,-177.85 701.74,-584.6 984.09,-867.35l5654.13 -5376.47c197.57,-167.01 429.07,-449.48 636.9,-588.66 146.13,97.83 278,201.86 421.01,309.14l9833.29 7403.63c72.49,59.85 129.38,104.15 207.89,157.21 88.2,59.67 122.47,98.7 208.42,156.63l430.63 325.61c516.34,388.53 736.7,582.62 1341.31,901.34 150.43,79.33 360.81,182.67 520.92,235.32 103.22,33.87 162.84,65.99 268.26,96.79 1017.2,297.02 1943.42,208.88 2627.23,-637.13 131.29,-162.37 221.12,-319.41 330.19,-504.28l134.94 -256.2c44.13,-93.77 75.27,-192.64 121.89,-295.34 136.57,-300.68 218.33,-635.45 295.86,-955.85 135.64,-561.11 220.19,-1146.11 359.65,-1700.44l290.01 -1378.94c49.7,-240.14 93.83,-444.67 143.12,-691.3l426.69 -2050.64c27.26,-118.13 55.67,-230.28 77.59,-339.65 25.57,-127.64 37,-224.3 68.83,-348.4 163.71,-637.95 357.86,-1672.72 496.22,-2372.25 205.57,-1039.18 454.18,-2030.4 647.86,-3081.12l2298.78 -10922.34c46.74,-236.25 90.52,-455.86 140.51,-667.87l860.05 -4120.65c188.53,-787.79 338.37,-1596 502.66,-2391.91l144.34 -690.14c29.34,-127.23 54.1,-204.36 77.65,-339.59 43.03,-247.04 100.44,-443.33 137.73,-670.65l431.73 -2071.63c101.89,-457.95 188.7,-891.77 291.05,-1351.8l291.63 -1377.26c188.12,-877.85 449.25,-1995.03 449.54,-2860.7l0 -11.13c-0.35,-609.3 -34.45,-1159.74 -295.17,-1677.13 -722.5,-1433.74 -2447.17,-1106.16 -3684.56,-676.28 -636.21,221 -1542.88,594.8 -2223.16,853.96 -73.71,28.07 -109.6,51.96 -202.09,84.67 -147.7,52.31 -252.89,97.13 -397.23,150.48l-2231.22 871.94c-81.53,32.94 -131.58,40.71 -213.11,73.71l-804.09 317.2c-154.08,58.63 -263.16,103.45 -416.02,157.73l-9731.8 3776.07c-553.11,222.8 -1083.54,411.44 -1635.31,633.37l-2421.48 942.45c-282.99,107.51 -554.85,206.44 -831.11,316.28 -128.04,50.97 -271.28,103.05 -394.62,152.98 -140.51,56.83 -279.28,101.48 -412.77,160.98 -321.21,143.12 -670.36,247.04 -992.09,389.98l-1034.83 399.38c-148.28,57.87 -266.75,105.72 -415.27,158.43 -147.29,52.31 -251.1,99.16 -393.17,154.49l-1222.14 472.85c-546.55,220.83 -1070.61,405.12 -1616.76,625.83 -872.05,352.4 -1761.91,664.04 -2634.25,1016.56l-618.35 242.22c-142.13,55.44 -245.53,102 -393.29,154.31l-1219.59 475.4c-144.34,53.29 -249.53,98.18 -397.17,150.43l-825.02 322.37c-659.87,291.98 -1353.02,512.75 -2029.76,786.57 -537.51,217.46 -1083.66,411.79 -1635.49,633.25 -136.1,54.57 -263.04,94.93 -393.46,154.08 -82.64,37.52 -115.23,48.13 -207.95,78.98l-3024.93 1173.43c-415.21,138.19 -809.77,318.89 -1220.05,474.94 -1363.92,518.78 -2715.9,1028.74 -4057.61,1575.06l-829.95 317.38c-121.43,44.88 -267.86,101.66 -395.32,152.34 -789.88,313.84 -1955.53,1037.38 -1955.53,2008.19z"/>
 </g>
</svg>
