<svg width="59" height="65" viewBox="0 0 59 65" fill="none" xmlns="http://www.w3.org/2000/svg">
<mask id="mask0_1314_369" style="mask-type:luminance" maskUnits="userSpaceOnUse" x="0" y="0" width="59" height="65">
<path d="M15.583 -4.74054e-05L0.645996 53.853L43.709 65L58.646 11.1469L15.583 -4.74054e-05Z" fill="white"/>
</mask>
<g mask="url(#mask0_1314_369)">
<path d="M39.7341 6.61084L9.24414 53.1179L19.8044 58.4644C26.3385 62.349 37.337 56.7766 45.4814 45.886L45.483 45.8806C46.2389 44.8665 46.9713 43.8131 47.6766 42.7142C55.9294 29.763 56.8357 15.8163 49.6929 11.5697C49.3693 11.3755 49.0305 11.216 48.6872 11.0719L39.7272 6.61461L39.7341 6.61084Z" fill="#0EAB4B"/>
<path d="M11.5903 22.208C3.33746 35.1589 2.55063 49.17 9.84067 53.5042C11.7251 54.6273 13.9752 54.9888 16.4098 54.6853C23.3694 53.8186 31.8699 47.5002 37.9795 37.9055C44.5215 27.6386 46.3721 16.6986 43.2263 10.4538C42.4039 8.82113 41.2463 7.5105 39.7329 6.61605C32.4429 2.28171 19.847 9.26355 11.5888 22.2132L11.5903 22.208ZM36.9817 9.79313C37.1902 9.90783 37.3903 10.0315 37.5838 10.1589C37.7901 10.2399 37.992 10.3364 38.1858 10.4418C38.6676 10.7046 39.108 11.0341 39.4963 11.4274C43.5633 15.4854 42.3839 25.9639 36.429 36.1564C36.3927 36.2243 36.353 36.2859 36.313 36.3472C36.0645 36.7691 35.8134 37.1792 35.5555 37.5933C35.4055 37.8249 35.2554 38.0568 35.1054 38.2888C34.9553 38.5207 34.8065 38.7472 34.6527 38.9725C34.3861 39.3566 34.1179 39.7456 33.8421 40.1219C33.6308 40.4097 33.4179 40.7026 33.196 40.9877C33.0712 41.1487 32.945 41.3148 32.8202 41.476C27.4312 48.3289 21.0052 52.3225 16.4004 51.5228C16.0338 51.5053 15.678 51.4684 15.3323 51.3957C14.5467 51.2586 13.8061 51.0007 13.1199 50.6295C6.88932 47.2378 7.19694 35.3461 13.7849 24.0688C20.3778 12.7929 30.7636 6.3991 36.9817 9.79313Z" fill="#FFFCF8"/>
<path d="M36.9808 9.79312C37.1893 9.90782 37.3893 10.0315 37.5828 10.1589C31.9481 7.87718 22.5958 14.4004 16.3008 25.1789C9.77286 36.3446 8.98134 47.8569 14.5386 50.892C14.7815 51.0267 15.0247 51.1393 15.2845 51.2341C15.297 51.2927 15.3107 51.3459 15.3176 51.403C14.5323 51.2662 13.7918 51.0079 13.1056 50.6371C6.88842 47.2378 7.19603 35.3459 13.7839 24.0688C20.3769 12.793 30.7623 6.39912 36.9808 9.79312Z" fill="#014830"/>
<path d="M37.5869 10.1655C38.1589 10.5566 38.6732 11.0323 39.1168 11.5779C43.0134 16.3322 42.0297 26.5795 36.3161 36.354C36.0676 36.7759 35.8166 37.186 35.559 37.5997C35.4089 37.8316 35.2589 38.0636 35.1088 38.2952C34.9584 38.5271 34.81 38.7539 34.6558 38.9792C34.3892 39.3631 34.1213 39.7523 33.8452 40.1283C33.6339 40.4161 33.4213 40.7091 33.1991 40.9941C33.0743 41.1551 32.9484 41.3215 32.8236 41.4825C27.6653 47.9367 21.374 51.7941 16.4039 51.5295C16.0215 51.4637 15.6536 51.3686 15.3022 51.2333C15.0425 51.1385 14.7992 51.0258 14.5564 50.8911C8.99911 47.8561 9.78907 36.3486 16.3185 25.1779C22.6188 14.4009 31.9658 7.87623 37.6006 10.1579L37.5869 10.1655Z" fill="#0EAB4B"/>
</g>
</svg>
