<?xml version="1.0" encoding="UTF-8"?>
<!DOCTYPE svg PUBLIC "-//W3C//DTD SVG 1.1//EN" "http://www.w3.org/Graphics/SVG/1.1/DTD/svg11.dtd">
<!-- Creator: CorelDRAW -->
<svg xmlns="http://www.w3.org/2000/svg" xml:space="preserve" width="31.1249mm" height="32.0974mm" version="1.1" style="shape-rendering:geometricPrecision; text-rendering:geometricPrecision; image-rendering:optimizeQuality; fill-rule:evenodd; clip-rule:evenodd"
viewBox="0 0 178.14 183.71"
 xmlns:xlink="http://www.w3.org/1999/xlink"
 xmlns:xodm="http://www.corel.com/coreldraw/odm/2003">
 <defs>
  <style type="text/css">
   <![CDATA[
    .fil0 {fill:white}
   ]]>
  </style>
 </defs>
 <g id="Layer_x0020_1">
  <metadata id="CorelCorpID_0Corel-Layer"/>
  <path class="fil0" d="M69.6 101.93c-1.65,1.38 -2.33,3.02 -3.84,4.7 -2.23,2.48 -2.55,2.69 -4.44,5.1l-48.24 56.18c-2.18,2.3 -2.48,2.88 -4.37,5.17 -1.74,2.11 -2.87,2.84 -4.51,4.96 -0.8,1.04 -3.3,3.92 -4.19,5.67 19.82,-0.61 11.17,3.11 33.1,-21.38l25.81 -30.28c3.29,-4.2 14.82,-17.78 17.96,-19.98l49.41 71.58 51.86 0c-1.74,-4.17 -14.04,-21.15 -17.65,-26.35l-36.34 -52.94c-6.41,-9.31 -12.28,-17.38 -18.23,-26.65l11.78 -14.13c2.12,-2.45 2.65,-2.72 4.46,-5.02l24.91 -29.23c3.4,-3.9 5.16,-5.77 8.49,-9.49 1.75,-1.96 1.98,-2.75 3.85,-4.74 2.13,-2.28 2.5,-2.79 4.4,-5.13 3.3,-4.07 4.97,-5.28 7.93,-9.91 -15.83,0.21 -13.56,-2 -21.88,8.34 -9.37,11.63 -48.9,57.69 -51.74,59.21 -1.45,-4.61 -7.95,-12.4 -11.17,-17.21l-34.93 -50.09 -51.98 -0.12 34.31 50.56c6.01,8.83 11.25,16.33 17.48,25.22 5.81,8.28 12.55,17.66 17.76,25.95zm64.1 70.23l22.22 -0.04 -95.71 -139.61c-3.32,-4.7 -12.23,-16.27 -13.44,-20.77l-24.26 0.01c1.55,4.15 23.09,34.24 27.42,40.53 9.25,13.44 18.19,26.81 27.47,39.98l51.85 75.38c2.09,3.09 1.59,3.2 4.46,4.53z"/>
 </g>
</svg>
