<?xml version="1.0" encoding="UTF-8"?>
<!DOCTYPE svg PUBLIC "-//W3C//DTD SVG 1.1//EN" "http://www.w3.org/Graphics/SVG/1.1/DTD/svg11.dtd">
<!-- Creator: CorelDRAW -->
<svg xmlns="http://www.w3.org/2000/svg" xml:space="preserve" width="110.28mm" height="28.9276mm" version="1.1" style="shape-rendering:geometricPrecision; text-rendering:geometricPrecision; image-rendering:optimizeQuality; fill-rule:evenodd; clip-rule:evenodd"
viewBox="0 0 11986.1 3144.07"
 xmlns:xlink="http://www.w3.org/1999/xlink"
 xmlns:xodm="http://www.corel.com/coreldraw/odm/2003">
 <defs>
  <style type="text/css">
   <![CDATA[
    .fil1 {fill:#32424B}
    .fil0 {fill:#E3C63C}
    .fil2 {fill:#FCFCFC}
    .fil3 {fill:white;fill-rule:nonzero}
   ]]>
  </style>
 </defs>
 <g id="Layer_x0020_1">
  <metadata id="CorelCorpID_0Corel-Layer"/>
  <g id="_105553160481504">
   <path class="fil0" d="M2586.8 2091.5c-48.86,120.56 -27.02,130.75 -132.44,193.51 -77.52,149.54 -265,321.38 -498.54,363.68 -300.9,151.35 -682.86,76.9 -962.73,-75.42 -253.72,-138.08 -420.39,-312.71 -533.16,-656.15 3.8,-100.87 538.38,-648.21 610.32,-675.45 91.34,72.65 243.59,193.52 360.39,239.59l260.21 -287.41c50.44,-58.41 62.93,-97.32 112.24,-158.31l131.9 -142.32c8.03,1.32 21.2,-1.64 24.39,-1.01 2.95,0.59 19.31,3.51 22.23,4.2 4.92,1.15 27.19,17.68 35.95,26.97 108.69,34.19 96.94,55.39 211.09,145.28l493.87 414.37c2.07,205.52 -19.97,462.62 -135.73,608.48zm-906.67 1052.57l-262 0c-349.85,-28.56 -698.73,-174.24 -987.89,-468.56 -405.81,-413.05 -430.23,-732.05 -430.23,-1256.84 0,-402.88 239.67,-759.58 449.38,-969.29 394.23,-394.24 735.48,-449.38 1237.69,-449.38 729.52,0 1457.02,727.49 1457.02,1457.01l0 230.05c0,797.83 -698.59,1394.61 -1463.97,1457.01z"/>
   <path class="fil1" d="M1955.82 2648.68c-88.2,-245.98 -313.91,-448.2 -420.46,-694.88 -88.27,40.15 -230.05,140.46 -311.44,206.27 52.37,-122.5 130.19,-211.25 201.95,-319.64 -6.33,-3.28 -18.34,-11.75 -20.64,-5.55 -2.3,6.18 -17.25,-4.78 -20.42,-6.24l-141.55 -116.89c-61.06,116.68 -18.89,62.03 -115.18,112.4 197.46,-347.2 104.86,-271.03 -57.82,-582.48 -71.94,27.24 -606.52,574.58 -610.32,675.45 112.76,343.44 279.44,518.07 533.16,656.15 279.87,152.31 661.83,226.77 962.73,75.42z"/>
   <path class="fil1" d="M1430.64 1481.26c51.6,72.21 942.73,765.87 1023.72,803.74 105.42,-62.76 83.58,-72.95 132.44,-193.51l-400.83 -827.84 -145.18 86.82c63.16,-82.42 80.81,-77.84 89.11,-184.63 -62.48,-47.52 -82.74,14.91 -126.27,-15.57l13.94 -226.91c-8.76,-9.28 -31.03,-25.81 -35.95,-26.97 -2.91,-0.68 -19.28,-3.61 -22.23,-4.2 -3.18,-0.63 -16.36,2.33 -24.39,1.01l-131.9 142.32c-49.31,61 -61.8,99.91 -112.24,158.31l-260.21 287.41z"/>
   <path class="fil2" d="M1955.82 2648.68c233.54,-42.3 421.02,-214.14 498.54,-363.68 -80.98,-37.88 -972.11,-731.53 -1023.72,-803.74 -116.8,-46.07 -269.05,-166.94 -360.39,-239.59 162.68,311.44 255.29,235.28 57.82,582.48 96.29,-50.38 54.12,4.27 115.18,-112.4l141.55 116.89c3.17,1.46 18.12,12.42 20.42,6.24 2.3,-6.2 14.31,2.27 20.64,5.55 -71.77,108.39 -149.59,197.14 -201.95,319.64 81.4,-65.81 223.18,-166.12 311.44,-206.27 106.55,246.69 332.26,448.9 420.46,694.88z"/>
   <path class="fil2" d="M2586.8 2091.5c115.76,-145.86 137.79,-402.96 135.73,-608.48l-493.87 -414.37c-114.15,-89.9 -102.41,-111.09 -211.09,-145.28l-13.94 226.91c43.53,30.49 63.79,-31.94 126.27,15.57 -8.3,106.79 -25.95,102.21 -89.11,184.63l145.18 -86.82 400.83 827.84z"/>
   <polygon class="fil3" points="3872.13,2080.53 4175.58,2080.53 4175.58,1134.81 3872.13,1134.81 "/>
   <path id="_1" class="fil3" d="M4861.17 2096.01c138.09,0 229.6,-21.11 303.48,-50.66l0 -188.58c-54.6,19.71 -125.25,39.4 -234.43,39.4 -199.1,0 -268.14,-98.5 -268.14,-278.64l0 -42.23c0,-181.54 97.95,-256.13 271.35,-256.13 93.12,0 155.75,12.67 219.97,33.78l0 -192.8c-61.02,-26.74 -146.12,-40.81 -280.98,-40.81 -297.04,0 -533.07,129.47 -533.07,474.27l0 32.37c0,320.87 194.28,470.04 521.82,470.04z"/>
   <path id="_2" class="fil3" d="M5829.37 2094.61c154.13,0 306.66,-30.97 386.95,-60.52l0 -464.42 -435.12 0 0 173.11 154.14 0 0 147.77c-25.69,8.43 -70.65,15.48 -115.61,15.48 -187.84,0 -231.2,-102.73 -231.2,-278.65l0 -42.21c0,-159.03 61.01,-263.18 290.61,-263.18 134.88,0 223.18,25.34 282.59,43.63l0 -194.2c-59.41,-26.74 -175.01,-52.07 -324.33,-52.07 -298.63,0 -560.35,113.99 -560.35,472.86l0 30.97c0,347.6 210.33,471.45 552.33,471.45z"/>
   <polygon id="_3" class="fil3" points="7669.94,1130.59 7669.94,1250.21 7281.38,1250.21 7281.38,2139.63 7124.04,2139.63 7124.04,1250.21 6735.48,1250.21 6735.48,1130.59 "/>
   <path id="_4" class="fil3" d="M7739.24 1403.6l133.27 0 0 126.66c11.25,-23.92 38.54,-54.89 81.89,-90.07 41.76,-35.18 91.53,-53.47 147.73,-53.47 3.2,0 6.41,0 12.84,1.4 6.42,0 17.66,1.41 32.12,2.82l0 130.88c-8.03,-1.41 -16.06,-2.82 -22.49,-2.82 -8.02,-1.4 -14.44,-1.4 -24.09,-1.4 -70.64,0 -125.24,19.69 -163.76,60.51 -36.93,39.41 -56.2,85.85 -56.2,137.92l0 423.6 -141.3 0 0 -736.03z"/>
   <path id="_5" class="fil3" d="M8378.29 1944.02c0,35.18 14.44,63.33 44.95,84.44 28.9,21.11 64.22,30.95 105.97,30.95 49.77,0 96.33,-9.85 142.89,-30.95 78.69,-32.37 118.83,-87.25 118.83,-163.25l0 -99.92c-17.66,9.85 -40.14,16.88 -67.44,23.92 -27.3,7.03 -52.99,11.26 -80.29,14.08l-85.09 9.85c-51.39,5.63 -89.92,14.08 -115.6,28.15 -43.36,21.11 -64.22,54.88 -64.22,102.73zm342 -250.5c32.11,-2.82 52.99,-15.48 64.22,-35.18 6.42,-11.26 9.63,-26.74 9.63,-47.86 0,-42.21 -17.66,-73.18 -51.39,-91.47 -33.71,-19.71 -83.48,-28.15 -146.11,-28.15 -73.85,0 -126.84,16.89 -157.35,52.07 -17.66,18.29 -28.9,47.86 -33.71,85.85l-131.66 0c3.21,-91.48 35.32,-154.8 101.16,-190 64.22,-35.18 138.08,-53.47 224.78,-53.47 97.95,0 178.24,16.89 239.24,50.67 62.61,32.37 93.12,83.03 93.12,153.39l0 423.61c0,12.66 1.61,23.92 8.03,30.95 6.42,8.45 19.27,11.26 38.53,11.26 6.42,0 12.85,0 20.88,0 8.03,-1.4 16.06,-2.82 25.68,-4.22l0 91.47c-22.47,5.63 -38.53,9.85 -51.38,11.26 -11.23,1.4 -27.29,1.4 -46.56,1.4 -48.17,0 -83.48,-15.48 -105.97,-45.03 -11.23,-15.48 -19.27,-39.41 -24.07,-67.55 -28.91,32.37 -70.65,60.51 -123.63,85.84 -54.6,23.92 -114.01,36.6 -178.23,36.6 -77.07,0 -141.29,-21.12 -191.06,-63.33 -49.78,-40.81 -73.87,-92.88 -73.87,-154.8 0,-68.96 24.1,-121.03 72.26,-159.03 49.78,-38 112.39,-60.52 192.68,-68.95l224.79 -25.34z"/>
   <path id="_6" class="fil3" d="M9252.01 1780.77c0,78.81 19.27,143.54 57.8,197.02 38.53,53.49 99.55,80.22 183.03,80.22 65.83,0 118.82,-25.34 160.58,-74.59 43.34,-49.26 64.22,-119.62 64.22,-211.09 0,-92.88 -22.49,-161.85 -65.83,-206.88 -43.36,-45.04 -96.34,-67.55 -160.56,-67.55 -70.65,0 -128.45,23.92 -173.4,71.77 -43.36,47.86 -65.83,118.22 -65.83,211.1zm211.94 -389.83c64.22,0 118.81,11.26 162.16,35.18 25.69,14.08 52.99,38 85.1,71.78l0 -371.54 136.47 0 0 1013.27 -126.84 0 0 -102.73c-33.71,45.03 -72.26,78.81 -117.21,98.51 -44.96,19.69 -96.33,30.95 -154.14,30.95 -94.73,0 -175.01,-35.18 -244.05,-104.14 -67.44,-68.95 -102.76,-160.43 -102.76,-274.43 0,-108.36 32.12,-201.25 94.74,-278.64 62.6,-78.81 150.91,-118.22 266.52,-118.22z"/>
   <path id="_7" class="fil3" d="M10055.08 1406.42l144.5 0 0 733.22 -144.5 0 0 -733.22zm0 -275.83l144.5 0 0 139.33 -144.5 0 0 -139.33z"/>
   <path id="_8" class="fil3" d="M10411.79 1403.6l134.87 0 0 104.14c40.15,-42.21 81.89,-73.18 126.85,-92.88 43.36,-18.29 93.12,-28.14 147.72,-28.14 118.82,0 199.09,36.58 240.84,109.76 24.09,39.41 35.32,97.11 35.32,171.69l0 471.45 -144.5 0 0 -464.41c0,-43.63 -6.42,-80.22 -22.49,-108.37 -24.07,-45.03 -70.64,-68.95 -136.48,-68.95 -33.71,0 -61.01,4.22 -81.89,9.85 -38.53,9.86 -72.26,29.55 -101.14,60.52 -24.09,23.92 -40.14,49.26 -46.56,74.59 -6.42,26.74 -11.25,63.32 -11.25,111.18l0 385.6 -141.29 0 0 -736.03z"/>
   <path id="_9" class="fil3" d="M11601.81 1390.94c65.83,0 123.63,14.08 171.81,42.23 27.29,15.48 54.58,39.4 81.89,70.36l0 -92.88 130.06 0 0 669.89c0,92.88 -14.46,166.06 -46.56,220.95 -57.81,99.92 -168.6,149.17 -332.37,149.17 -89.91,0 -165.38,-16.89 -228,-53.49 -61.01,-35.18 -96.33,-90.07 -102.75,-166.06l142.9 0c6.42,32.38 20.87,57.7 41.75,75.99 32.11,28.15 81.87,40.81 149.33,40.81 109.18,0 179.82,-32.37 213.54,-99.92 19.27,-39.4 28.91,-109.76 27.29,-211.09 -28.9,38 -62.61,66.14 -102.75,84.44 -38.53,18.29 -91.51,26.74 -157.35,26.74 -89.92,0 -170.19,-28.15 -237.65,-84.44 -69.03,-56.29 -102.75,-150.59 -102.75,-280.06 0,-123.85 33.73,-219.55 102.75,-288.5 69.05,-70.36 150.95,-104.14 248.87,-104.14zm253.7 377.16c0,-90.06 -20.88,-157.62 -64.23,-202.65 -43.34,-43.63 -97.94,-66.15 -163.77,-66.15 -99.55,0 -166.98,40.81 -203.91,122.44 -19.27,43.63 -28.9,101.33 -28.9,171.69 0,83.04 19.27,146.36 57.8,188.58 38.54,43.63 89.91,66.15 154.14,66.15 102.76,0 173.41,-40.81 215.15,-121.03 22.48,-45.03 33.73,-98.51 33.73,-159.03z"/>
  </g>
 </g>
</svg>
