<svg width="1440" height="963" viewBox="0 0 1440 963" fill="none" xmlns="http://www.w3.org/2000/svg">
<path opacity="0.0144928" d="M1303.77 1634.87C1312.92 1639.73 1324.19 1637.94 1331.39 1630.49L1557.72 1396.41C1561.98 1392.01 1564.33 1386.1 1564.25 1379.97L1558.64 913.906C1558.58 909.087 1557.02 904.405 1554.19 900.509L1314.04 570.402C1308.9 563.336 1300.23 559.749 1291.6 561.116L1011.15 605.535C1002.52 606.902 995.388 612.992 992.682 621.3L866.299 1009.46L864.635 1008.92L866.299 1009.46C864.807 1014.04 864.775 1018.97 866.209 1023.58L1004.89 1468.57C1006.71 1474.42 1010.77 1479.31 1016.18 1482.18L1303.77 1634.87Z" stroke="url(#paint0_linear_1267_4918)" stroke-width="3.5"/>
<path opacity="0.0289855" d="M1252.61 1633.37C1261.48 1638.67 1272.78 1637.49 1280.36 1630.46L1517.27 1410.51C1521.77 1406.33 1524.43 1400.55 1524.68 1394.42L1543.51 932.986C1543.71 928.156 1542.4 923.385 1539.76 919.337L1318.67 580.359C1313.91 573.05 1305.45 569.026 1296.77 569.938L1016.06 599.442C1007.38 600.354 999.942 606.049 996.799 614.19L851.025 991.725C849.284 996.234 848.992 1001.17 850.189 1005.86L964.544 1453.29C966.063 1459.24 969.872 1464.34 975.139 1467.49L1252.61 1633.37Z" stroke="url(#paint1_linear_1267_4918)" stroke-width="3.5"/>
<path opacity="0.0434783" d="M1201.84 1630.32C1210.4 1636.05 1221.72 1635.46 1229.64 1628.87L1476.29 1423.52C1481.01 1419.58 1483.98 1413.94 1484.56 1407.82L1527.33 952.295C1527.79 947.467 1526.72 942.619 1524.28 938.429L1322.53 591.662C1318.15 584.129 1309.92 579.68 1301.22 580.136L1021.03 594.82C1012.33 595.276 1004.61 600.561 1001.04 608.511L836.641 974.466C834.655 978.889 834.1 983.822 835.056 988.575L925.213 1437.14C926.424 1443.16 929.972 1448.46 935.08 1451.88L1201.84 1630.32Z" stroke="url(#paint2_linear_1267_4918)" stroke-width="3.5"/>
<path opacity="0.057971" d="M1151.55 1625.76C1159.79 1631.9 1171.08 1631.9 1179.33 1625.76L1434.83 1435.42C1439.76 1431.74 1443.04 1426.26 1443.94 1420.17L1510.09 971.773C1510.8 966.962 1509.99 962.049 1507.76 957.726L1325.54 604.255C1321.56 596.52 1313.58 591.659 1304.88 591.659L1026 591.659C1017.29 591.659 1009.32 596.52 1005.33 604.255L823.115 957.726C820.887 962.049 820.07 966.962 820.78 971.773L886.936 1420.17C887.835 1426.26 891.111 1431.74 896.047 1435.42L1151.55 1625.76Z" stroke="url(#paint3_linear_1267_4918)" stroke-width="3.5"/>
<path opacity="0.0724638" d="M1101.81 1619.73C1109.71 1626.26 1120.95 1626.85 1129.49 1621.18L1392.95 1446.2C1398.09 1442.79 1401.66 1437.48 1402.88 1431.44L1491.79 991.363C1492.75 986.58 1492.19 981.616 1490.18 977.171L1327.65 618.081C1324.06 610.163 1316.36 604.905 1307.68 604.45L1030.87 589.943C1022.19 589.488 1013.98 593.912 1009.59 601.412L810.413 941.546C807.947 945.756 806.869 950.635 807.33 955.492L849.751 1402.45C850.333 1408.58 853.329 1414.24 858.08 1418.17L1101.81 1619.73Z" stroke="url(#paint4_linear_1267_4918)" stroke-width="3.5"/>
<path opacity="0.0869565" d="M1052.7 1612.26C1060.24 1619.17 1071.4 1620.34 1080.21 1615.15L1350.73 1455.85C1356.05 1452.71 1359.91 1447.59 1361.45 1441.61L1472.42 1011C1473.64 1006.26 1473.34 1001.26 1471.55 996.705L1328.79 633.077C1325.62 624.998 1318.21 619.358 1309.58 618.451L1035.58 589.653C1026.94 588.746 1018.53 592.722 1013.74 599.965L798.499 925.964L797.038 925L798.499 925.965C795.802 930.049 794.463 934.88 794.672 939.769L813.69 1384.04C813.954 1390.21 816.661 1396.02 821.213 1400.19L1052.7 1612.26Z" stroke="url(#paint5_linear_1267_4918)" stroke-width="3.5"/>
<path opacity="0.101449" d="M1004.3 1603.42C1011.46 1610.68 1022.51 1612.42 1031.55 1607.74L1308.23 1464.35C1313.72 1461.51 1317.85 1456.59 1319.71 1450.69L1452 1030.64C1453.47 1025.96 1453.43 1020.93 1451.87 1016.27L1328.9 649.181C1326.15 640.962 1319.05 634.957 1310.49 633.602L1040.04 590.766C1031.48 589.41 1022.88 592.929 1017.72 599.894L787.336 911.019C784.414 914.965 782.816 919.735 782.772 924.644L778.783 1365.02C778.727 1371.2 781.137 1377.15 785.479 1381.56L1004.3 1603.42Z" stroke="url(#paint6_linear_1267_4918)" stroke-width="3.5"/>
<path opacity="0.115942" d="M956.673 1593.25C963.433 1600.83 974.336 1603.15 983.597 1598.97L1265.5 1471.71C1271.14 1469.16 1275.54 1464.47 1277.71 1458.67L1430.52 1050.21C1432.25 1045.6 1432.46 1040.55 1431.14 1035.81L1327.94 666.324C1325.61 657.988 1318.85 651.635 1310.38 649.836L1044.19 593.255C1035.72 591.456 1026.96 594.507 1021.44 601.175L776.884 896.744C773.743 900.539 771.89 905.234 771.59 910.151L745.054 1345.45C744.677 1351.63 746.783 1357.71 750.903 1362.33L956.673 1593.25Z" stroke="url(#paint7_linear_1267_4918)" stroke-width="3.5"/>
<path opacity="0.130435" d="M909.881 1581.8C916.23 1589.7 926.96 1592.57 936.405 1588.91L1222.61 1477.93C1228.4 1475.69 1233.04 1471.22 1235.52 1465.54L1408 1069.66C1409.98 1065.13 1410.46 1060.09 1409.37 1055.27L1325.85 684.437C1323.96 676.007 1317.54 669.325 1309.19 667.088L1047.95 597.089C1039.6 594.852 1030.7 597.43 1024.84 603.782L767.103 883.172C763.752 886.804 761.646 891.411 761.09 896.322L712.526 1325.4C711.828 1331.57 713.622 1337.75 717.51 1342.59L909.881 1581.8Z" stroke="url(#paint8_linear_1267_4918)" stroke-width="3.5"/>
<path opacity="0.144928" d="M863.989 1569.14C869.912 1577.32 880.44 1580.74 890.041 1577.61L1179.63 1483C1185.53 1481.07 1190.42 1476.86 1193.2 1471.3L1384.46 1088.94C1386.68 1084.5 1387.42 1079.47 1386.58 1074.59L1322.6 703.451C1321.14 694.947 1315.08 687.955 1306.87 685.288L1051.26 602.233C1043.05 599.566 1034.04 601.664 1027.86 607.682L757.951 870.332C754.397 873.791 752.042 878.295 751.23 883.187L681.213 1304.95C680.196 1311.08 681.674 1317.36 685.318 1322.39L863.989 1569.14Z" stroke="url(#paint9_linear_1267_4918)" stroke-width="3.5"/>
<path opacity="0.15942" d="M819.054 1555.33C824.54 1563.78 834.837 1567.73 844.564 1565.12L1136.61 1486.94C1142.62 1485.33 1147.73 1481.37 1150.81 1475.96L1359.91 1107.98C1362.36 1103.65 1363.37 1098.65 1362.77 1093.71L1318.14 723.29C1317.11 714.736 1311.43 707.453 1303.39 704.366L1054.04 608.649C1046 605.561 1036.9 607.175 1030.41 612.842L749.385 858.253C745.637 861.526 743.038 865.915 741.97 870.775L651.132 1284.16C649.796 1290.23 650.953 1296.59 654.343 1301.81L819.054 1555.33Z" stroke="url(#paint10_linear_1267_4918)" stroke-width="3.5"/>
<path opacity="0.173913" d="M775.131 1540.43C780.168 1549.11 790.207 1553.58 800.03 1551.52L1093.61 1489.74C1099.71 1488.46 1105.04 1484.78 1108.4 1479.53L1334.36 1126.74C1337.06 1122.53 1338.32 1117.57 1337.98 1112.59L1312.44 743.88C1311.84 735.298 1306.56 727.746 1298.7 724.247L1056.24 616.295C1048.38 612.796 1039.23 613.923 1032.45 619.223L741.36 846.959C737.427 850.035 734.589 854.297 733.266 859.112L622.288 1263.1C620.637 1269.11 621.469 1275.53 624.596 1280.93L775.131 1540.43Z" stroke="url(#paint11_linear_1267_4918)" stroke-width="3.5"/>
<path opacity="0.188406" d="M732.269 1524.51C736.847 1533.41 746.603 1538.38 756.491 1536.85L1050.7 1491.43C1056.87 1490.48 1062.39 1487.09 1066.04 1482.01L1307.85 1145.16C1310.77 1141.09 1312.3 1136.18 1312.21 1131.17L1305.46 765.146C1305.31 756.558 1300.43 748.757 1292.77 744.858L1057.79 625.127C1050.14 621.228 1040.96 621.866 1033.92 626.785L733.83 836.472C729.722 839.342 726.652 843.462 725.076 848.219L594.688 1241.85C592.725 1247.78 593.228 1254.25 596.085 1259.8L732.269 1524.51Z" stroke="url(#paint12_linear_1267_4918)" stroke-width="3.5"/>
<path opacity="0.202899" d="M690.515 1507.64C694.624 1516.73 704.071 1522.18 713.995 1521.19L1007.93 1492.03C1014.15 1491.41 1019.86 1488.31 1023.77 1483.43L1280.4 1163.19C1283.54 1159.27 1285.33 1154.43 1285.49 1149.4L1297.19 787.009C1297.47 778.438 1293 770.411 1285.58 766.123L1058.63 635.098C1051.21 630.811 1042.03 630.959 1034.74 635.484L726.749 826.812C722.477 829.466 719.181 833.433 717.355 838.119L568.333 1220.48C566.062 1226.31 566.234 1232.8 568.811 1238.5L690.515 1507.64Z" stroke="url(#paint13_linear_1267_4918)" stroke-width="3.5"/>
<path opacity="0.217391" d="M649.909 1489.88C653.543 1499.14 662.656 1505.05 672.587 1504.61L965.355 1491.54C971.614 1491.26 977.494 1488.46 981.665 1483.79L1252.03 1180.79C1255.39 1177.02 1257.43 1172.26 1257.85 1167.23L1287.6 809.391C1288.31 800.859 1284.27 792.628 1277.09 787.966L1058.72 646.157C1051.54 641.494 1042.38 641.154 1034.88 645.272L720.07 817.997C715.645 820.425 712.13 824.227 710.057 828.828L543.218 1199.06C540.644 1204.77 540.485 1211.28 542.775 1217.11L649.909 1489.88Z" stroke="url(#paint14_linear_1267_4918)" stroke-width="3.5"/>
<path opacity="0.231884" d="M610.488 1471.32C613.64 1480.71 622.398 1487.08 632.304 1487.17L923.038 1489.98C929.314 1490.05 935.347 1487.57 939.767 1483.11L1222.77 1197.9C1226.34 1194.31 1228.64 1189.64 1229.31 1184.62L1276.67 832.214C1277.81 823.743 1274.21 815.331 1267.29 810.308L1058 658.251C1051.09 653.227 1041.97 652.402 1034.27 656.102L713.745 810.04C709.179 812.234 705.453 815.858 703.136 820.363L519.337 1177.65C516.467 1183.23 515.974 1189.74 517.971 1195.69L610.488 1471.32Z" stroke="url(#paint15_linear_1267_4918)" stroke-width="3.5"/>
<path opacity="0.246377" d="M572.286 1452.02C574.952 1461.53 583.332 1468.31 593.185 1468.95L881.031 1487.4C887.304 1487.8 893.474 1485.64 898.132 1481.42L1192.67 1214.49C1196.43 1211.07 1198.98 1206.51 1199.91 1201.52L1264.39 855.398C1265.95 847.011 1262.8 838.441 1256.16 833.071L1056.42 671.324C1049.79 665.955 1040.75 664.649 1032.87 667.921L707.727 802.954C703.031 804.905 699.104 808.341 696.547 812.736L496.679 1156.33C493.519 1161.77 492.693 1168.25 494.391 1174.3L572.286 1452.02Z" stroke="url(#paint16_linear_1267_4918)" stroke-width="3.5"/>
<path opacity="0.26087" d="M535.33 1432.07C537.506 1441.66 545.487 1448.85 555.257 1450.01L839.383 1483.8C845.637 1484.55 851.924 1482.72 856.808 1478.75L1161.74 1230.5C1165.7 1227.28 1168.49 1222.84 1169.68 1217.88L1250.76 878.865C1252.74 870.582 1250.03 861.878 1243.7 856.179L1053.94 685.321C1047.61 679.622 1038.68 677.84 1030.64 680.676L701.966 796.749C697.153 798.448 693.034 801.685 690.242 805.958L475.229 1135.17C471.786 1140.44 470.628 1146.89 472.021 1153.03L535.33 1432.07Z" stroke="url(#paint17_linear_1267_4918)" stroke-width="3.5"/>
<path opacity="0.275362" d="M499.643 1411.52C501.329 1421.18 508.892 1428.75 518.55 1430.43L798.146 1479.23C804.361 1480.31 810.749 1478.82 815.846 1475.11L1130.04 1245.9C1134.18 1242.88 1137.2 1238.58 1138.65 1233.66L1235.76 902.536C1238.16 894.378 1235.91 885.564 1229.89 879.552L1050.52 700.181C1044.51 694.169 1035.7 691.918 1027.54 694.311L696.416 791.429C691.499 792.871 687.196 795.897 684.176 800.036L454.968 1114.23C451.25 1119.33 449.763 1125.71 450.847 1131.93L499.643 1411.52Z" stroke="url(#paint18_linear_1267_4918)" stroke-width="3.5"/>
<path opacity="0.289855" d="M465.245 1390.48C466.439 1400.17 473.566 1408.09 483.084 1410.29L757.366 1473.7C763.523 1475.13 769.995 1473.98 775.291 1470.54L1097.59 1260.65C1101.9 1257.84 1105.16 1253.68 1106.86 1248.83L1219.41 926.332C1222.21 918.32 1220.42 909.42 1214.74 903.113L1046.12 715.843C1040.44 709.536 1031.78 706.825 1023.52 708.768L691.026 786.999C686.018 788.177 681.543 790.983 678.301 794.977L435.873 1093.57C431.89 1098.48 430.075 1104.8 430.848 1111.07L465.245 1390.48Z" stroke="url(#paint19_linear_1267_4918)" stroke-width="3.5"/>
<path opacity="0.304348" d="M432.152 1369C432.854 1378.71 439.529 1386.95 448.879 1389.66L717.09 1467.27C723.172 1469.03 729.708 1468.23 735.19 1465.06L1064.45 1274.71C1068.92 1272.13 1072.4 1268.13 1074.35 1263.34L1201.71 950.176C1204.9 942.33 1203.58 933.368 1198.25 926.785L1040.71 732.246C1035.38 725.663 1026.89 722.5 1018.55 723.99L685.749 783.462C680.665 784.37 676.028 786.946 672.57 790.782L417.92 1073.27C413.681 1077.97 411.543 1084.2 412 1090.51L432.152 1369Z" stroke="url(#paint20_linear_1267_4918)" stroke-width="3.5"/>
<path opacity="0.318841" d="M400.371 1347.17C400.584 1356.87 406.792 1365.41 415.946 1368.61L677.36 1459.96C683.348 1462.05 689.931 1461.6 695.583 1458.72L1030.65 1288.05C1035.27 1285.7 1038.97 1281.87 1041.16 1277.17L1182.67 973.991C1186.25 966.33 1185.38 957.332 1180.41 950.492L1034.26 749.326C1029.29 742.486 1021 738.883 1012.61 739.916L680.537 780.814C675.39 781.448 670.603 783.784 666.937 787.451L401.078 1053.37C396.594 1057.86 394.137 1063.98 394.276 1070.32L400.371 1347.17Z" stroke="url(#paint21_linear_1267_4918)" stroke-width="3.5"/>
<path opacity="0.333333" d="M369.91 1325.07C369.637 1334.72 375.364 1343.54 384.296 1347.22L638.218 1451.8C644.094 1454.22 650.704 1454.13 656.512 1451.55L996.23 1300.64C1000.99 1298.53 1004.9 1294.88 1007.34 1290.28L1162.3 997.702C1166.25 990.245 1165.85 981.234 1161.26 974.157L1026.74 767.017C1022.14 759.94 1014.07 755.909 1005.66 756.484L675.343 779.052L675.224 777.306L675.343 779.052C670.148 779.407 665.223 781.496 661.356 784.983L385.317 1033.95C380.598 1038.21 377.827 1044.21 377.648 1050.56L369.91 1325.07Z" stroke="url(#paint22_linear_1267_4918)" stroke-width="3.5"/>
<path opacity="0.347826" d="M340.768 1302.77C340.015 1312.36 345.249 1321.42 353.933 1325.57L599.702 1442.85C605.448 1445.6 612.066 1445.86 618.013 1443.59L961.247 1312.45C966.131 1310.59 970.244 1307.13 972.921 1302.64L1140.63 1021.23C1144.94 1014 1145 1005 1140.79 997.707L1018.13 785.256C1013.92 777.963 1006.1 773.516 997.676 773.633L670.119 778.171C664.891 778.243 659.84 780.076 655.781 783.373L370.598 1015.05C365.657 1019.07 362.578 1024.93 362.079 1031.28L340.768 1302.77Z" stroke="url(#paint23_linear_1267_4918)" stroke-width="3.5"/>
<path opacity="0.362319" d="M312.943 1280.34C311.715 1289.85 316.446 1299.13 324.858 1303.72L561.847 1433.15C567.445 1436.2 574.053 1436.83 580.124 1434.87L925.743 1323.46C930.741 1321.85 935.046 1318.59 937.958 1314.22L1117.67 1044.52C1122.33 1037.52 1122.85 1028.56 1119.04 1021.07L1008.42 803.975C1004.61 796.487 997.046 791.641 988.649 791.3L664.82 778.16C659.573 777.947 654.409 779.517 650.168 782.613L356.885 996.739C351.733 1000.5 348.353 1006.21 347.536 1012.54L312.943 1280.34Z" stroke="url(#paint24_linear_1267_4918)" stroke-width="3.5"/>
<path opacity="0.376812" d="M286.427 1257.87C284.732 1267.26 288.951 1276.74 297.066 1281.76L524.687 1422.73C530.12 1426.09 536.698 1427.07 542.876 1425.44L889.766 1333.64C894.865 1332.29 899.353 1329.24 902.494 1325.01L1093.45 1067.48C1098.45 1060.74 1099.43 1051.84 1096.02 1044.17L997.592 823.11C994.18 815.448 986.907 810.217 978.557 809.421L659.4 779.009C654.15 778.509 648.886 779.809 644.471 782.695L344.135 979.058C338.786 982.555 335.113 988.099 333.978 994.388L286.427 1257.87Z" stroke="url(#paint25_linear_1267_4918)" stroke-width="3.5"/>
<path opacity="0.391304" d="M261.21 1235.42C259.055 1244.68 262.755 1254.32 270.552 1259.76L488.252 1411.64C493.503 1415.3 500.033 1416.64 506.301 1415.33L853.367 1342.96C858.553 1341.88 863.214 1339.06 866.579 1334.97L1068.01 1090.05C1073.32 1083.59 1074.76 1074.76 1071.76 1066.95L985.634 842.593C982.635 834.779 975.667 829.18 967.391 827.934L653.815 780.705C648.577 779.916 643.227 780.94 638.649 783.606L332.306 962.06C326.773 965.283 322.815 970.645 321.364 976.881L261.21 1235.42Z" stroke="url(#paint26_linear_1267_4918)" stroke-width="3.5"/>
<path opacity="0.405797" d="M237.273 1213.07C234.669 1222.18 237.844 1231.95 245.301 1237.78L452.569 1399.93C457.622 1403.88 464.083 1405.57 470.424 1404.6L816.594 1351.43C821.853 1350.62 826.676 1348.03 830.258 1344.1L1041.37 1112.17C1046.99 1105.99 1048.87 1097.28 1046.29 1089.33L972.541 862.358C969.961 854.415 963.318 848.467 955.14 846.775L648.021 783.231C642.811 782.153 637.388 782.895 632.659 785.332L321.349 945.791C315.647 948.73 311.412 953.895 309.648 960.063L237.273 1213.07Z" stroke="url(#paint27_linear_1267_4918)" stroke-width="3.5"/>
<path opacity="0.42029" d="M214.598 1190.9C211.556 1199.82 214.202 1209.69 221.298 1215.9L417.664 1387.64C422.503 1391.88 428.877 1393.91 435.274 1393.28L779.498 1359.01C784.817 1358.48 789.791 1356.14 793.583 1352.37L1013.58 1133.77C1019.49 1127.9 1021.81 1119.31 1019.65 1111.26L958.313 882.34C956.156 874.29 949.857 868.011 941.801 865.88L641.977 786.569C636.81 785.202 631.33 785.657 626.459 787.858L311.217 930.294C305.36 932.941 300.859 937.895 298.785 943.979L214.598 1190.9Z" stroke="url(#paint28_linear_1267_4918)" stroke-width="3.5"/>
<path opacity="0.434783" d="M193.161 1168.96C189.693 1177.68 191.808 1187.63 198.524 1194.19L383.558 1374.83C388.167 1379.33 394.436 1381.72 400.87 1381.42L742.13 1365.7C747.495 1365.46 752.608 1363.36 756.602 1359.77L984.678 1154.79C990.861 1149.24 993.607 1140.8 991.878 1132.67L942.949 902.473C941.22 894.34 935.281 887.75 927.371 885.188L635.642 790.699C630.534 789.045 625.01 789.209 620.009 791.166L301.859 915.611C295.861 917.957 291.105 922.687 288.724 928.671L193.161 1168.96Z" stroke="url(#paint29_linear_1267_4918)" stroke-width="3.5"/>
<path opacity="0.449275" d="M172.934 1147.33C169.052 1155.83 170.636 1165.82 176.954 1172.71L350.271 1361.54C354.635 1366.29 360.779 1369.02 367.232 1369.07L704.541 1371.49C709.936 1371.53 715.177 1369.69 719.365 1366.29L954.704 1175.18C961.143 1169.95 964.308 1161.69 963.011 1153.49L926.455 922.693C925.158 914.5 919.594 907.619 911.854 904.636L628.976 795.6C623.942 793.659 618.389 793.53 613.27 795.234L293.221 901.777C287.097 903.816 282.097 908.308 279.416 914.178L172.934 1147.33Z" stroke="url(#paint30_linear_1267_4918)" stroke-width="3.5"/>
<path opacity="0.463768" d="M153.886 1126.07C149.605 1134.32 150.658 1144.34 156.562 1151.52L317.818 1347.82C321.923 1352.81 327.924 1355.88 334.379 1356.27L666.782 1376.38C672.193 1376.71 677.549 1375.13 681.923 1371.93L923.708 1194.88C930.385 1189.99 933.959 1181.92 933.094 1173.69L908.841 942.937C907.976 934.707 902.802 927.557 895.255 924.163L621.941 801.246C616.997 799.022 611.431 798.597 606.206 800.042L285.249 888.827C279.016 890.551 273.783 894.794 270.807 900.535L153.886 1126.07Z" stroke="url(#paint31_linear_1267_4918)" stroke-width="3.5"/>
<path opacity="0.478261" d="M135.984 1105.24C131.318 1113.23 131.843 1123.24 137.318 1130.7L286.214 1333.72C290.046 1338.94 295.885 1342.33 302.324 1343.07L628.905 1380.36C634.318 1380.98 639.776 1379.67 644.326 1376.68L891.741 1213.83C898.636 1209.29 902.608 1201.44 902.176 1193.19L890.12 963.142C889.688 954.898 884.917 947.501 877.584 943.708L614.503 807.612C609.664 805.109 604.1 804.384 598.782 805.565L277.887 876.791C271.561 878.195 266.108 882.176 262.843 887.773L135.984 1105.24Z" stroke="url(#paint32_linear_1267_4918)" stroke-width="3.5"/>
<path opacity="0.492754" d="M119.187 1084.9C114.154 1092.62 114.154 1102.59 119.187 1110.3L255.467 1319.29C259.014 1324.72 264.674 1328.43 271.078 1329.51L590.961 1383.43C596.36 1384.34 601.906 1383.31 606.624 1380.54L858.853 1231.99C865.949 1227.82 870.305 1220.19 870.305 1211.96L870.305 983.247C870.305 975.013 865.949 967.392 858.853 963.213L606.624 814.671C601.906 811.893 596.36 810.868 590.961 811.778L271.078 865.696C264.674 866.775 259.014 870.483 255.467 875.922L119.187 1084.9Z" stroke="url(#paint33_linear_1267_4918)" stroke-width="3.5"/>
<path opacity="0.507246" d="M103.457 1065.12C98.0719 1072.54 97.5533 1082.44 102.133 1090.38L225.587 1304.57C228.836 1310.21 234.3 1314.23 240.65 1315.65L553.001 1385.59C558.37 1386.8 563.992 1386.06 568.867 1383.5L825.102 1249.32C832.378 1245.51 837.104 1238.15 837.534 1229.94L849.417 1003.19C849.847 994.991 845.917 987.17 839.079 982.62L598.274 822.392C593.693 819.344 588.179 818.019 582.713 818.654L264.762 855.564C258.298 856.314 252.445 859.739 248.624 865.007L103.457 1065.12Z" stroke="url(#paint34_linear_1267_4918)" stroke-width="3.5"/>
<path opacity="0.521739" d="M88.7483 1045.94C83.0298 1053.05 81.9999 1062.85 86.1149 1070.99L196.578 1289.63C199.518 1295.45 204.768 1299.77 211.047 1301.53L515.075 1386.86C520.4 1388.35 526.084 1387.9 531.105 1385.58L790.542 1265.78C797.98 1262.34 803.061 1255.25 803.917 1247.1L827.479 1022.92C828.335 1014.78 824.841 1006.78 818.28 1001.87L589.421 830.746C584.991 827.433 579.526 825.809 574.006 826.164L258.881 846.417C252.374 846.835 246.341 849.967 242.254 855.049L88.7483 1045.94Z" stroke="url(#paint35_linear_1267_4918)" stroke-width="3.5"/>
<path opacity="0.536232" d="M75.0147 1027.42C68.981 1034.2 67.4484 1043.88 71.0903 1052.19L168.44 1274.51C171.062 1280.49 176.082 1285.1 182.27 1287.2L477.232 1387.24C482.497 1389.02 488.228 1388.86 493.385 1386.78L755.233 1281.32C762.812 1278.27 768.232 1271.46 769.51 1263.39L804.515 1042.38C805.793 1034.31 802.741 1026.16 796.476 1020.92L580.035 839.699C575.772 836.13 570.371 834.206 564.811 834.278L253.374 838.27C246.839 838.354 240.642 841.184 236.299 846.067L75.0147 1027.42Z" stroke="url(#paint36_linear_1267_4918)" stroke-width="3.5"/>
<path opacity="0.550725" d="M62.2082 1009.6C55.8783 1016.04 53.8534 1025.57 57.0151 1034.03L141.176 1259.25C143.468 1265.39 148.242 1270.27 154.323 1272.7L439.521 1386.73C444.712 1388.81 450.476 1388.94 455.758 1387.11L719.236 1295.91C726.936 1293.25 732.679 1286.75 734.373 1278.78L780.553 1061.51C782.247 1053.54 779.646 1045.27 773.695 1039.7L570.091 849.219C566.009 845.4 560.688 843.18 555.102 842.965L248.18 831.136C241.636 830.884 235.289 833.404 230.699 838.076L62.2082 1009.6Z" stroke="url(#paint37_linear_1267_4918)" stroke-width="3.5"/>
<path opacity="0.565217" d="M50.2769 992.523C43.6706 998.613 41.1649 1007.96 43.841 1016.54L114.779 1243.91C116.734 1250.18 121.247 1255.32 127.202 1258.08L401.992 1385.36C407.091 1387.72 412.874 1388.16 418.27 1386.59L682.613 1309.53C690.414 1307.26 696.461 1301.08 698.564 1293.23L755.626 1080.27C757.729 1072.42 755.582 1064.04 749.964 1058.17L559.563 859.271C555.677 855.211 550.452 852.696 544.854 852.192L243.24 825.024C236.703 824.435 230.221 826.637 225.395 831.086L50.2769 992.523Z" stroke="url(#paint38_linear_1267_4918)" stroke-width="3.5"/>
<path opacity="0.57971" d="M39.1671 976.239C32.3047 981.964 29.3311 991.116 31.5178 999.781L89.2452 1228.53C90.8549 1234.91 95.091 1240.31 100.904 1243.39L364.689 1383.14C369.683 1385.79 375.469 1386.52 380.967 1385.21L645.426 1322.15C653.307 1320.27 659.641 1314.42 662.145 1306.72L729.766 1098.6C732.27 1090.89 730.582 1082.44 725.311 1076.29L548.429 869.818C544.752 865.526 539.638 862.721 534.042 861.926L238.491 819.94C231.978 819.015 225.378 820.892 220.327 825.106L39.1671 976.239Z" stroke="url(#paint39_linear_1267_4918)" stroke-width="3.5"/>
<path opacity="0.594203" d="M28.8239 960.781C21.726 966.13 18.299 975.058 19.9942 983.783L64.5646 1213.17C65.8221 1219.64 69.7682 1225.27 75.4208 1228.67L327.659 1380.09C332.532 1383.02 338.307 1384.06 343.894 1383.01L607.74 1333.74C615.68 1332.25 622.282 1326.76 625.177 1319.22L703.01 1116.45C705.905 1108.91 704.678 1100.41 699.769 1093.99L536.667 880.825C533.213 876.311 528.225 873.219 522.647 872.132L233.872 815.885C227.401 814.625 220.699 816.171 215.434 820.139L28.8239 960.781Z" stroke="url(#paint40_linear_1267_4918)" stroke-width="3.5"/>
<path opacity="0.608696" d="M19.1902 946.183C11.8782 951.148 8.01326 959.829 9.2166 968.584L40.7263 1197.86C41.6259 1204.4 45.2686 1210.26 50.744 1213.96L290.946 1376.24C295.682 1379.44 301.432 1380.78 307.096 1380.01L569.619 1344.29C577.599 1343.2 584.449 1338.06 587.724 1330.71L675.396 1133.79C678.672 1126.43 677.907 1117.91 673.374 1111.25L524.258 892.254C521.041 887.529 516.196 884.155 510.648 882.776L229.324 812.859C222.911 811.265 216.123 812.475 210.656 816.187L19.1902 946.183Z" stroke="url(#paint41_linear_1267_4918)" stroke-width="3.5"/>
<path opacity="0.623188" d="M10.2079 932.476C2.70338 937.048 -1.58265 945.46 -0.869995 954.218L17.7166 1182.65C18.2537 1189.25 21.5806 1195.31 26.8623 1199.3L254.592 1371.59C259.178 1375.06 264.886 1376.71 270.615 1376.22L531.13 1353.78C539.128 1353.09 546.206 1348.32 549.85 1341.17L646.965 1150.57C650.61 1143.42 650.306 1134.89 646.162 1128.02L511.188 904.067C508.219 899.142 503.532 895.492 498.03 893.822L224.786 810.855C218.449 808.931 211.591 809.801 205.935 813.246L10.2079 932.476Z" stroke="url(#paint42_linear_1267_4918)" stroke-width="3.5"/>
<path opacity="0.637681" d="M1.8175 919.686C-5.85768 923.858 -10.5468 931.979 -10.322 940.712L-4.48028 1167.58C-4.30942 1174.22 -1.31012 1180.46 3.76176 1184.75L218.639 1366.19C223.059 1369.93 228.711 1371.88 234.492 1371.66L492.336 1362.21C500.334 1361.91 507.618 1357.53 511.619 1350.6L617.759 1166.76C621.76 1159.83 621.916 1151.33 618.172 1144.25L497.44 916.225C494.733 911.113 490.218 907.193 484.776 905.231L220.199 809.866C213.954 807.615 207.044 808.141 201.212 811.311L1.8175 919.686Z" stroke="url(#paint43_linear_1267_4918)" stroke-width="3.5"/>
<path opacity="0.652174" d="M-6.04181 907.835C-13.8656 911.601 -18.9387 919.413 -19.1971 928.093L-25.883 1152.7C-26.081 1159.35 -23.4201 1165.77 -18.5736 1170.33L183.126 1360.06C187.366 1364.05 192.946 1366.3 198.766 1366.38L453.305 1369.56C461.281 1369.66 468.751 1365.66 473.095 1358.98L587.822 1182.31C592.166 1175.62 592.778 1167.17 589.443 1159.93L483.003 928.688C480.57 923.402 476.242 919.22 470.875 916.969L215.504 809.879C209.368 807.306 202.423 807.485 196.428 810.371L-6.04181 907.835Z" stroke="url(#paint44_linear_1267_4918)" stroke-width="3.5"/>
<path opacity="0.666667" d="M-13.4313 896.943C-21.3814 900.3 -26.8185 907.783 -27.5539 916.381L-46.5122 1138.05C-47.0805 1144.69 -44.7678 1151.26 -40.1619 1156.08L148.091 1353.23C152.135 1357.47 157.629 1360.02 163.474 1360.38L414.101 1375.84C422.035 1376.33 429.669 1372.73 434.342 1366.3L557.2 1197.2C561.872 1190.77 562.935 1182.4 560.018 1175L467.868 941.419C465.719 935.971 461.593 931.535 456.315 928.997L210.644 810.88C204.633 807.99 197.671 807.821 191.527 810.414L-13.4313 896.943Z" stroke="url(#paint45_linear_1267_4918)" stroke-width="3.5"/>
<path opacity="0.681159" d="M-20.4117 887.025C-28.4658 889.968 -34.2459 897.106 -35.4505 905.596L-66.3892 1123.66C-67.3283 1130.28 -65.3728 1136.98 -61.0219 1142.06L113.568 1345.73C117.404 1350.21 122.796 1353.06 128.654 1353.71L374.789 1381.04C382.662 1381.92 390.439 1378.73 395.424 1372.57L525.94 1211.39C530.926 1205.24 532.433 1196.97 529.941 1189.45L452.027 954.376C450.172 948.781 446.263 944.1 441.088 941.278L205.564 812.849C199.695 809.649 192.732 809.13 186.453 811.424L-20.4117 887.025Z" stroke="url(#paint46_linear_1267_4918)" stroke-width="3.5"/>
<path opacity="0.695652" d="M-27.0458 878.091C-35.1817 880.62 -41.2829 887.396 -42.9473 895.751L-85.5392 1109.57C-86.8484 1116.14 -85.2581 1122.96 -81.1762 1128.28L79.5925 1337.6C83.2059 1342.3 88.4811 1345.45 94.338 1346.39L335.434 1385.18C343.227 1386.44 351.124 1383.65 356.405 1377.79L494.091 1224.87C499.373 1219 501.318 1210.86 499.256 1203.24L435.473 967.52C433.924 961.794 430.244 956.876 425.188 953.774L200.209 815.766C194.497 812.262 187.551 811.393 181.152 813.382L-27.0458 878.091Z" stroke="url(#paint47_linear_1267_4918)" stroke-width="3.5"/>
<path opacity="0.710145" d="M-33.3947 870.15C-41.5899 872.263 -47.9895 878.663 -50.1028 886.858L-103.988 1095.82C-105.665 1102.33 -104.447 1109.24 -100.647 1114.78L46.1953 1328.86C49.5731 1333.79 54.7163 1337.22 60.5588 1338.46L296.099 1388.26C303.793 1389.89 311.788 1387.52 317.349 1381.96L461.702 1237.6C467.263 1232.04 469.636 1224.05 468.009 1216.35L418.206 980.812C416.971 974.969 413.535 969.826 408.61 966.448L194.527 819.606C188.988 815.806 182.075 814.588 175.571 816.265L-33.3947 870.15Z" stroke="url(#paint48_linear_1267_4918)" stroke-width="3.5"/>
<path opacity="0.724638" d="M-39.5217 863.205C-47.7542 864.904 -54.4288 870.914 -56.9785 878.923L-121.763 1082.45C-123.806 1088.86 -122.966 1095.85 -119.461 1101.6L13.4042 1319.57C16.5336 1324.7 21.5298 1328.42 27.3444 1329.95L256.845 1390.3C264.422 1392.29 272.493 1390.33 278.315 1385.09L428.822 1249.57C434.644 1244.33 437.435 1236.51 436.246 1228.76L400.222 994.212C399.309 988.269 396.13 982.911 391.351 979.262L188.466 824.341C183.114 820.254 176.253 818.688 169.658 820.049L-39.5217 863.205Z" stroke="url(#paint49_linear_1267_4918)" stroke-width="3.5"/>
<path opacity="0.73913" d="M-45.4866 857.257C-53.7344 858.542 -60.6601 864.15 -63.6323 871.951L-138.895 1069.47C-141.298 1075.78 -140.842 1082.82 -137.643 1088.76L-18.752 1309.75C-15.8838 1315.08 -11.0491 1319.08 -5.27592 1320.9L217.735 1391.3C225.177 1393.65 233.301 1392.11 239.365 1387.2L395.504 1260.76C401.568 1255.85 404.765 1248.22 404.014 1240.45L381.523 1007.68C380.941 1001.65 378.031 996.093 373.413 992.179L181.977 829.941C176.827 825.577 170.034 823.666 163.364 824.705L-45.4866 857.257Z" stroke="url(#paint50_linear_1267_4918)" stroke-width="3.5"/>
<path opacity="0.753623" d="M-51.3507 852.301C-59.5922 853.176 -66.7444 858.372 -70.1239 865.94L-155.413 1056.93C-158.173 1063.11 -158.103 1070.18 -155.222 1076.3L-50.2498 1299.45C-47.6545 1304.96 -42.996 1309.24 -37.2778 1311.35L178.827 1391.3C186.117 1393.99 194.272 1392.87 200.56 1388.3L361.796 1271.15C368.084 1266.59 371.674 1259.18 371.362 1251.41L362.113 1021.18C361.868 1015.09 359.241 1009.34 354.796 1005.16L175.014 836.373C170.08 831.741 163.373 829.489 156.644 830.204L-51.3507 852.301Z" stroke="url(#paint51_linear_1267_4918)" stroke-width="3.5"/>
<path opacity="0.768116" d="M-57.1738 848.33C-65.3875 848.8 -72.7413 853.575 -76.5113 860.888L-171.35 1044.84C-174.459 1050.87 -174.779 1057.96 -172.226 1064.24L-81.0664 1288.7C-78.7556 1294.39 -74.2877 1298.93 -68.638 1301.34L140.18 1390.3C147.301 1393.34 155.464 1392.63 161.955 1388.41L327.752 1280.74C334.244 1276.53 338.211 1269.36 338.336 1261.62L341.997 1034.67C342.096 1028.53 339.762 1022.6 335.504 1018.18L167.532 843.602C162.828 838.714 156.223 836.123 149.45 836.511L-57.1738 848.33Z" stroke="url(#paint52_linear_1267_4918)" stroke-width="3.5"/>
<path opacity="0.782609" d="M-63.015 845.334C-71.18 845.403 -78.71 849.751 -82.8527 856.787L-186.739 1033.24C-190.19 1039.1 -190.901 1046.18 -188.686 1052.61L-111.183 1277.55C-109.167 1283.4 -104.904 1288.21 -99.3365 1290.9L101.848 1388.35C108.784 1391.71 116.934 1391.42 123.608 1387.57L293.422 1289.52C300.096 1285.67 304.427 1278.76 304.986 1271.07L321.182 1048.12C321.63 1041.95 319.601 1035.85 315.543 1031.18L159.489 851.591C155.028 846.457 148.542 843.534 141.741 843.592L-63.015 845.334Z" stroke="url(#paint53_linear_1267_4918)" stroke-width="3.5"/>
<path opacity="0.797101" d="M-68.9315 843.298C-77.0272 842.973 -84.7079 846.887 -89.2041 853.627L-201.615 1022.15C-205.399 1027.82 -206.502 1034.87 -204.632 1041.42L-140.581 1266.05C-138.872 1272.04 -134.827 1277.1 -129.355 1280.08L63.8858 1385.47C70.6219 1389.15 78.7369 1389.26 85.5735 1385.78L258.857 1297.49C265.693 1294 270.371 1287.37 271.358 1279.76L299.677 1061.48C300.479 1055.3 298.765 1049.05 294.921 1044.15L150.845 860.298C146.639 854.931 140.289 851.681 133.476 851.408L-68.9315 843.298Z" stroke="url(#paint54_linear_1267_4918)" stroke-width="3.5"/>
<path opacity="0.811594" d="M-74.98 842.205C-82.9865 841.494 -90.7921 844.97 -95.6214 851.395L-216.012 1011.58C-220.12 1017.04 -221.614 1024.04 -220.097 1030.7L-169.247 1254.22C-167.854 1260.35 -164.041 1265.65 -158.678 1268.92L26.3441 1381.7C32.8659 1385.67 40.9242 1386.19 47.9018 1383.09L224.107 1304.63C231.085 1301.53 236.091 1295.19 237.501 1287.68L277.494 1074.72C278.653 1068.55 277.265 1062.17 273.646 1057.04L141.564 869.683C137.625 864.096 131.426 860.525 124.617 859.921L-74.98 842.205Z" stroke="url(#paint55_linear_1267_4918)" stroke-width="3.5"/>
<path opacity="0.826087" d="M-81.2135 842.034C-89.1113 840.946 -97.016 843.98 -102.157 850.074L-229.966 1001.56C-234.386 1006.8 -236.269 1013.72 -235.113 1020.47L-197.168 1242.13C-196.099 1248.37 -192.532 1253.91 -187.29 1257.46L-10.7265 1377.06C-4.43266 1381.32 3.54786 1382.24 10.6448 1379.52L189.224 1310.97C196.321 1308.24 201.638 1302.22 203.463 1294.84L254.646 1087.81C256.165 1081.67 255.113 1075.17 251.731 1069.82L131.611 879.701C127.95 873.907 121.919 870.023 115.13 869.088L-81.2135 842.034Z" stroke="url(#paint56_linear_1267_4918)" stroke-width="3.5"/>
<path opacity="0.84058" d="M-87.6862 842.762C-95.4567 841.306 -103.435 843.898 -108.865 849.643L-243.514 992.098C-248.235 997.092 -250.504 1003.92 -249.713 1010.74L-224.335 1229.81C-223.6 1236.15 -220.291 1241.91 -215.184 1245.74L-47.2813 1371.6C-41.2282 1376.14 -33.3461 1377.44 -26.1514 1375.11L154.257 1316.49C161.451 1314.15 167.059 1308.46 169.289 1301.23L231.147 1100.72C233.029 1094.62 232.32 1088.01 229.188 1082.45L120.955 890.307C117.583 884.32 111.734 880.131 104.98 878.866L-87.6862 842.762Z" stroke="url(#paint57_linear_1267_4918)" stroke-width="3.5"/>
<path opacity="0.855072" d="M-94.448 844.361C-102.073 842.548 -110.098 844.698 -115.795 850.081L-256.693 983.215C-261.701 987.947 -264.352 994.656 -263.931 1001.53L-250.74 1217.31C-250.347 1223.73 -247.309 1229.71 -242.35 1233.81L-83.2757 1365.35C-77.4753 1370.15 -69.7117 1371.84 -62.4414 1369.89L119.253 1321.21C126.523 1319.26 132.401 1313.91 135.026 1306.86L207.014 1113.4C209.259 1107.37 208.903 1100.68 206.031 1094.92L109.568 901.454C106.494 895.288 100.843 890.804 94.1401 889.21L-94.448 844.361Z" stroke="url(#paint58_linear_1267_4918)" stroke-width="3.5"/>
<path opacity="0.869565" d="M-101.547 846.802C-109.01 844.643 -117.057 846.354 -122.996 851.361L-269.539 974.919C-274.82 979.372 -277.848 985.942 -277.802 992.85L-276.379 1204.67C-276.335 1211.16 -273.581 1217.33 -268.781 1221.7L-118.669 1358.37C-113.132 1363.41 -105.507 1365.48 -98.1828 1363.92L84.2606 1325.14C91.5845 1323.58 97.7105 1318.59 100.718 1311.74L182.266 1125.83C184.873 1119.89 184.877 1113.12 182.277 1107.18L97.4236 913.094C94.6564 906.764 89.218 901.993 82.5822 900.073L-101.547 846.802Z" stroke="url(#paint59_linear_1267_4918)" stroke-width="3.5"/>
<path opacity="0.884058" d="M-109.03 850.053C-116.313 847.561 -124.357 848.836 -130.514 853.456L-282.091 967.22C-287.63 971.377 -291.028 977.788 -291.358 984.706L-301.25 1191.93C-301.562 1198.47 -299.103 1204.84 -294.476 1209.47L-153.423 1350.69C-148.16 1355.96 -140.692 1358.39 -133.336 1357.22L49.3261 1328.29C56.6816 1327.13 63.0339 1322.51 66.411 1315.87L156.922 1137.98C159.891 1132.14 160.262 1125.33 157.944 1119.2L84.5002 925.176C82.0483 918.699 76.836 913.651 70.2829 911.409L-109.03 850.053Z" stroke="url(#paint60_linear_1267_4918)" stroke-width="3.5"/>
<path opacity="0.898551" d="M-116.941 854.08C-124.029 851.268 -132.045 852.111 -138.394 856.335L-294.386 960.123C-300.167 963.97 -303.927 970.2 -304.635 977.108L-325.354 1179.15C-326.028 1185.72 -323.875 1192.27 -319.433 1197.16L-187.503 1342.36C-182.523 1347.84 -175.23 1350.62 -167.865 1349.85L14.4936 1330.68C21.8587 1329.91 28.4144 1325.67 32.146 1319.28L131.003 1149.81C134.331 1144.11 135.076 1137.26 133.051 1130.97L70.7778 937.651C68.6486 931.041 63.676 925.729 57.2208 923.168L-116.941 854.08Z" stroke="url(#paint61_linear_1267_4918)" stroke-width="3.5"/>
<path opacity="0.913043" d="M-125.32 858.844C-132.198 855.727 -140.162 856.144 -146.676 859.963L-306.46 953.635C-312.467 957.156 -316.579 963.185 -317.666 970.063L-348.693 1166.36C-349.734 1172.94 -347.899 1179.66 -343.654 1184.8L-220.878 1333.43C-216.189 1339.11 -209.088 1342.23 -201.735 1341.85L-20.1927 1332.33C-12.8401 1331.95 -6.10446 1328.1 -2.03454 1321.96L104.532 1161.31C108.217 1155.75 109.34 1148.89 107.617 1142.45L56.2412 950.467C54.4412 943.741 49.7212 938.175 43.3791 935.301L-125.32 858.844Z" stroke="url(#paint62_linear_1267_4918)" stroke-width="3.5"/>
<path opacity="0.927536" d="M-134.207 864.308C-140.861 860.9 -148.748 860.9 -155.403 864.308L-318.352 947.757C-324.566 950.939 -329.021 956.746 -330.486 963.572L-371.274 1153.61C-372.686 1160.19 -371.179 1167.06 -367.143 1172.44L-253.518 1323.96C-249.127 1329.81 -242.236 1333.26 -234.917 1333.26L-54.6921 1333.26C-47.3735 1333.26 -40.4821 1329.81 -36.0913 1323.96L77.5335 1172.44C81.5699 1167.06 83.0768 1160.19 81.665 1153.61L40.8768 963.572C39.4117 956.746 34.9565 950.939 28.7423 947.757L-134.207 864.308Z" stroke="url(#paint63_linear_1267_4918)" stroke-width="3.5"/>
<path opacity="0.942029" d="M-143.636 870.429C-150.053 866.746 -157.841 866.338 -164.608 869.33L-330.097 942.49C-336.5 945.32 -341.286 950.885 -343.128 957.639L-393.104 1140.94C-394.891 1147.5 -393.723 1154.5 -389.906 1160.12L-285.399 1313.98C-281.312 1320 -274.646 1323.76 -267.383 1324.14L-88.9643 1333.49C-81.7012 1333.87 -74.6785 1330.83 -69.9855 1325.27L50.0317 1183.18C54.4148 1177.99 56.3093 1171.14 55.2174 1164.44L24.6751 976.915C23.5498 970.005 19.3712 963.971 13.2995 960.486L-143.636 870.429Z" stroke="url(#paint64_linear_1267_4918)" stroke-width="3.5"/>
<path opacity="0.956522" d="M-153.64 877.166C-159.809 873.224 -167.474 872.418 -174.328 874.991L-341.733 937.831C-348.305 940.298 -353.41 945.601 -355.625 952.262L-414.194 1128.4C-416.359 1134.91 -415.538 1142.04 -411.953 1147.89L-316.499 1303.56C-312.722 1309.72 -306.295 1313.77 -299.108 1314.53L-122.972 1333.04C-115.785 1333.8 -108.656 1331.17 -103.681 1325.93L22.0533 1193.5C26.7764 1188.53 29.0619 1181.72 28.2981 1174.91L7.62953 990.441C6.84796 983.466 2.95691 977.217 -2.95802 973.438L-153.64 877.166Z" stroke="url(#paint65_linear_1267_4918)" stroke-width="3.5"/>
<path opacity="0.971014" d="M-164.249 884.472C-170.159 880.289 -177.68 879.097 -184.594 881.25L-353.295 933.777C-360.015 935.869 -365.426 940.893 -368.01 947.439L-434.556 1116.02C-437.101 1122.47 -436.638 1129.71 -433.294 1135.78L-346.799 1292.75C-343.335 1299.03 -337.162 1303.37 -330.073 1304.49L-156.679 1331.95C-149.589 1333.08 -142.379 1330.86 -137.142 1325.95L-6.37466 1203.39C-1.31907 1198.66 1.35974 1191.91 0.931738 1184.99L-10.2635 1004.1C-10.6982 997.076 -14.2914 990.626 -20.0357 986.56L-164.249 884.472Z" stroke="url(#paint66_linear_1267_4918)" stroke-width="3.5"/>
<path opacity="0.985507" d="M-175.489 892.304C-181.13 887.896 -188.487 886.332 -195.433 888.065L-364.818 930.321C-371.665 932.029 -377.366 936.755 -380.314 943.166L-454.206 1103.85C-457.131 1110.21 -457.034 1117.55 -453.942 1123.83L-376.285 1281.6C-373.137 1287.99 -367.231 1292.59 -360.259 1294.07L-190.051 1330.25C-183.08 1331.73 -175.814 1329.93 -170.337 1325.37L-35.2237 1212.83C-29.8445 1208.35 -26.7706 1201.68 -26.8556 1194.68L-29.0038 1017.84C-29.0896 1010.78 -32.3753 1004.15 -37.9356 999.802L-175.489 892.304Z" stroke="url(#paint67_linear_1267_4918)" stroke-width="3.5"/>
<path d="M-187.385 900.613C-192.748 895.998 -199.921 894.076 -206.873 895.392L-376.337 927.456C-383.289 928.771 -389.264 933.181 -392.57 939.437L-473.16 1091.92C-476.467 1098.18 -476.744 1105.6 -473.915 1112.08L-404.945 1270.16C-402.116 1276.65 -396.487 1281.49 -389.653 1283.32L-223.059 1327.96C-216.224 1329.79 -208.928 1328.41 -203.235 1324.21L-64.4655 1221.79C-58.7726 1217.59 -55.3027 1211.03 -55.0381 1203.96L-48.5892 1031.61C-48.3247 1024.54 -51.2942 1017.73 -56.6573 1013.11L-187.385 900.613Z" stroke="url(#paint68_linear_1267_4918)" stroke-width="3.5"/>
<defs>
<linearGradient id="paint0_linear_1267_4918" x1="1319.57" y1="1645.24" x2="1135.68" y2="484.222" gradientUnits="userSpaceOnUse">
<stop offset="0.32" stop-color="#0EAB4B"/>
<stop offset="1" stop-color="#91F165"/>
</linearGradient>
<linearGradient id="paint1_linear_1267_4918" x1="1267.8" y1="1644.5" x2="1146.02" y2="485.766" gradientUnits="userSpaceOnUse">
<stop offset="0.32" stop-color="#0EAB4B"/>
<stop offset="1" stop-color="#91F165"/>
</linearGradient>
<linearGradient id="paint2_linear_1267_4918" x1="1216.4" y1="1642.17" x2="1155.96" y2="489.015" gradientUnits="userSpaceOnUse">
<stop offset="0.32" stop-color="#0EAB4B"/>
<stop offset="1" stop-color="#91F165"/>
</linearGradient>
<linearGradient id="paint3_linear_1267_4918" x1="1165.44" y1="1638.29" x2="1165.44" y2="493.93" gradientUnits="userSpaceOnUse">
<stop offset="0.32" stop-color="#0EAB4B"/>
<stop offset="1" stop-color="#91F165"/>
</linearGradient>
<linearGradient id="paint4_linear_1267_4918" x1="1115" y1="1632.9" x2="1174.35" y2="500.471" gradientUnits="userSpaceOnUse">
<stop offset="0.32" stop-color="#0EAB4B"/>
<stop offset="1" stop-color="#91F165"/>
</linearGradient>
<linearGradient id="paint5_linear_1267_4918" x1="1065.16" y1="1626.05" x2="1182.61" y2="508.59" gradientUnits="userSpaceOnUse">
<stop offset="0.32" stop-color="#0EAB4B"/>
<stop offset="1" stop-color="#91F165"/>
</linearGradient>
<linearGradient id="paint6_linear_1267_4918" x1="1016" y1="1617.77" x2="1190.15" y2="518.237" gradientUnits="userSpaceOnUse">
<stop offset="0.32" stop-color="#0EAB4B"/>
<stop offset="1" stop-color="#91F165"/>
</linearGradient>
<linearGradient id="paint7_linear_1267_4918" x1="967.582" y1="1608.12" x2="1196.88" y2="529.358" gradientUnits="userSpaceOnUse">
<stop offset="0.32" stop-color="#0EAB4B"/>
<stop offset="1" stop-color="#91F165"/>
</linearGradient>
<linearGradient id="paint8_linear_1267_4918" x1="919.982" y1="1597.15" x2="1202.74" y2="541.893" gradientUnits="userSpaceOnUse">
<stop offset="0.32" stop-color="#0EAB4B"/>
<stop offset="1" stop-color="#91F165"/>
</linearGradient>
<linearGradient id="paint9_linear_1267_4918" x1="873.26" y1="1584.93" x2="1207.65" y2="555.781" gradientUnits="userSpaceOnUse">
<stop offset="0.32" stop-color="#0EAB4B"/>
<stop offset="1" stop-color="#91F165"/>
</linearGradient>
<linearGradient id="paint10_linear_1267_4918" x1="827.478" y1="1571.51" x2="1211.55" y2="570.957" gradientUnits="userSpaceOnUse">
<stop offset="0.32" stop-color="#0EAB4B"/>
<stop offset="1" stop-color="#91F165"/>
</linearGradient>
<linearGradient id="paint11_linear_1267_4918" x1="782.692" y1="1556.95" x2="1214.39" y2="587.351" gradientUnits="userSpaceOnUse">
<stop offset="0.32" stop-color="#0EAB4B"/>
<stop offset="1" stop-color="#91F165"/>
</linearGradient>
<linearGradient id="paint12_linear_1267_4918" x1="738.954" y1="1541.33" x2="1216.09" y2="604.894" gradientUnits="userSpaceOnUse">
<stop offset="0.32" stop-color="#0EAB4B"/>
<stop offset="1" stop-color="#91F165"/>
</linearGradient>
<linearGradient id="paint13_linear_1267_4918" x1="696.313" y1="1524.71" x2="1216.62" y2="623.511" gradientUnits="userSpaceOnUse">
<stop offset="0.32" stop-color="#0EAB4B"/>
<stop offset="1" stop-color="#91F165"/>
</linearGradient>
<linearGradient id="paint14_linear_1267_4918" x1="654.813" y1="1507.16" x2="1215.92" y2="643.127" gradientUnits="userSpaceOnUse">
<stop offset="0.32" stop-color="#0EAB4B"/>
<stop offset="1" stop-color="#91F165"/>
</linearGradient>
<linearGradient id="paint15_linear_1267_4918" x1="614.492" y1="1488.75" x2="1213.95" y2="663.663" gradientUnits="userSpaceOnUse">
<stop offset="0.32" stop-color="#0EAB4B"/>
<stop offset="1" stop-color="#91F165"/>
</linearGradient>
<linearGradient id="paint16_linear_1267_4918" x1="575.387" y1="1469.56" x2="1210.68" y2="685.04" gradientUnits="userSpaceOnUse">
<stop offset="0.32" stop-color="#0EAB4B"/>
<stop offset="1" stop-color="#91F165"/>
</linearGradient>
<linearGradient id="paint17_linear_1267_4918" x1="537.527" y1="1449.66" x2="1206.06" y2="707.177" gradientUnits="userSpaceOnUse">
<stop offset="0.32" stop-color="#0EAB4B"/>
<stop offset="1" stop-color="#91F165"/>
</linearGradient>
<linearGradient id="paint18_linear_1267_4918" x1="500.94" y1="1429.13" x2="1200.08" y2="729.992" gradientUnits="userSpaceOnUse">
<stop offset="0.32" stop-color="#0EAB4B"/>
<stop offset="1" stop-color="#91F165"/>
</linearGradient>
<linearGradient id="paint19_linear_1267_4918" x1="465.646" y1="1408.05" x2="1192.71" y2="753.401" gradientUnits="userSpaceOnUse">
<stop offset="0.32" stop-color="#0EAB4B"/>
<stop offset="1" stop-color="#91F165"/>
</linearGradient>
<linearGradient id="paint20_linear_1267_4918" x1="431.663" y1="1386.5" x2="1183.93" y2="777.323" gradientUnits="userSpaceOnUse">
<stop offset="0.32" stop-color="#0EAB4B"/>
<stop offset="1" stop-color="#91F165"/>
</linearGradient>
<linearGradient id="paint21_linear_1267_4918" x1="399.003" y1="1364.54" x2="1173.73" y2="801.672" gradientUnits="userSpaceOnUse">
<stop offset="0.32" stop-color="#0EAB4B"/>
<stop offset="1" stop-color="#91F165"/>
</linearGradient>
<linearGradient id="paint22_linear_1267_4918" x1="367.674" y1="1342.27" x2="1162.09" y2="826.365" gradientUnits="userSpaceOnUse">
<stop offset="0.32" stop-color="#0EAB4B"/>
<stop offset="1" stop-color="#91F165"/>
</linearGradient>
<linearGradient id="paint23_linear_1267_4918" x1="337.679" y1="1319.75" x2="1149.03" y2="851.319" gradientUnits="userSpaceOnUse">
<stop offset="0.32" stop-color="#0EAB4B"/>
<stop offset="1" stop-color="#91F165"/>
</linearGradient>
<linearGradient id="paint24_linear_1267_4918" x1="309.018" y1="1297.07" x2="1134.52" y2="876.451" gradientUnits="userSpaceOnUse">
<stop offset="0.32" stop-color="#0EAB4B"/>
<stop offset="1" stop-color="#91F165"/>
</linearGradient>
<linearGradient id="paint25_linear_1267_4918" x1="281.684" y1="1274.29" x2="1118.59" y2="901.679" gradientUnits="userSpaceOnUse">
<stop offset="0.32" stop-color="#0EAB4B"/>
<stop offset="1" stop-color="#91F165"/>
</linearGradient>
<linearGradient id="paint26_linear_1267_4918" x1="255.67" y1="1251.51" x2="1101.25" y2="926.922" gradientUnits="userSpaceOnUse">
<stop offset="0.32" stop-color="#0EAB4B"/>
<stop offset="1" stop-color="#91F165"/>
</linearGradient>
<linearGradient id="paint27_linear_1267_4918" x1="230.959" y1="1228.78" x2="1082.5" y2="952.1" gradientUnits="userSpaceOnUse">
<stop offset="0.32" stop-color="#0EAB4B"/>
<stop offset="1" stop-color="#91F165"/>
</linearGradient>
<linearGradient id="paint28_linear_1267_4918" x1="207.536" y1="1206.19" x2="1062.37" y2="977.137" gradientUnits="userSpaceOnUse">
<stop offset="0.32" stop-color="#0EAB4B"/>
<stop offset="1" stop-color="#91F165"/>
</linearGradient>
<linearGradient id="paint29_linear_1267_4918" x1="185.376" y1="1183.8" x2="1040.88" y2="1001.95" gradientUnits="userSpaceOnUse">
<stop offset="0.32" stop-color="#0EAB4B"/>
<stop offset="1" stop-color="#91F165"/>
</linearGradient>
<linearGradient id="paint30_linear_1267_4918" x1="164.456" y1="1161.68" x2="1018.05" y2="1026.48" gradientUnits="userSpaceOnUse">
<stop offset="0.32" stop-color="#0EAB4B"/>
<stop offset="1" stop-color="#91F165"/>
</linearGradient>
<linearGradient id="paint31_linear_1267_4918" x1="144.745" y1="1139.9" x2="993.93" y2="1050.64" gradientUnits="userSpaceOnUse">
<stop offset="0.32" stop-color="#0EAB4B"/>
<stop offset="1" stop-color="#91F165"/>
</linearGradient>
<linearGradient id="paint32_linear_1267_4918" x1="126.211" y1="1118.52" x2="968.542" y2="1074.37" gradientUnits="userSpaceOnUse">
<stop offset="0.32" stop-color="#0EAB4B"/>
<stop offset="1" stop-color="#91F165"/>
</linearGradient>
<linearGradient id="paint33_linear_1267_4918" x1="108.816" y1="1097.6" x2="941.928" y2="1097.6" gradientUnits="userSpaceOnUse">
<stop offset="0.32" stop-color="#0EAB4B"/>
<stop offset="1" stop-color="#91F165"/>
</linearGradient>
<linearGradient id="paint34_linear_1267_4918" x1="92.5221" y1="1077.21" x2="914.132" y2="1120.27" gradientUnits="userSpaceOnUse">
<stop offset="0.32" stop-color="#0EAB4B"/>
<stop offset="1" stop-color="#91F165"/>
</linearGradient>
<linearGradient id="paint35_linear_1267_4918" x1="77.2863" y1="1057.4" x2="885.199" y2="1142.32" gradientUnits="userSpaceOnUse">
<stop offset="0.32" stop-color="#0EAB4B"/>
<stop offset="1" stop-color="#91F165"/>
</linearGradient>
<linearGradient id="paint36_linear_1267_4918" x1="63.0621" y1="1038.22" x2="855.176" y2="1163.68" gradientUnits="userSpaceOnUse">
<stop offset="0.32" stop-color="#0EAB4B"/>
<stop offset="1" stop-color="#91F165"/>
</linearGradient>
<linearGradient id="paint37_linear_1267_4918" x1="49.8031" y1="1019.73" x2="824.117" y2="1184.31" gradientUnits="userSpaceOnUse">
<stop offset="0.32" stop-color="#0EAB4B"/>
<stop offset="1" stop-color="#91F165"/>
</linearGradient>
<linearGradient id="paint38_linear_1267_4918" x1="37.4582" y1="1001.96" x2="792.076" y2="1204.16" gradientUnits="userSpaceOnUse">
<stop offset="0.32" stop-color="#0EAB4B"/>
<stop offset="1" stop-color="#91F165"/>
</linearGradient>
<linearGradient id="paint39_linear_1267_4918" x1="25.9743" y1="984.966" x2="759.108" y2="1223.18" gradientUnits="userSpaceOnUse">
<stop offset="0.32" stop-color="#0EAB4B"/>
<stop offset="1" stop-color="#91F165"/>
</linearGradient>
<linearGradient id="paint40_linear_1267_4918" x1="15.2972" y1="968.784" x2="725.273" y2="1241.32" gradientUnits="userSpaceOnUse">
<stop offset="0.32" stop-color="#0EAB4B"/>
<stop offset="1" stop-color="#91F165"/>
</linearGradient>
<linearGradient id="paint41_linear_1267_4918" x1="5.37033" y1="953.451" x2="690.632" y2="1258.55" gradientUnits="userSpaceOnUse">
<stop offset="0.32" stop-color="#0EAB4B"/>
<stop offset="1" stop-color="#91F165"/>
</linearGradient>
<linearGradient id="paint42_linear_1267_4918" x1="-3.86409" y1="938.999" x2="655.247" y2="1274.83" gradientUnits="userSpaceOnUse">
<stop offset="0.32" stop-color="#0EAB4B"/>
<stop offset="1" stop-color="#91F165"/>
</linearGradient>
<linearGradient id="paint43_linear_1267_4918" x1="-12.4653" y1="925.457" x2="619.181" y2="1290.14" gradientUnits="userSpaceOnUse">
<stop offset="0.32" stop-color="#0EAB4B"/>
<stop offset="1" stop-color="#91F165"/>
</linearGradient>
<linearGradient id="paint44_linear_1267_4918" x1="-20.4941" y1="912.85" x2="582.499" y2="1304.44" gradientUnits="userSpaceOnUse">
<stop offset="0.32" stop-color="#0EAB4B"/>
<stop offset="1" stop-color="#91F165"/>
</linearGradient>
<linearGradient id="paint45_linear_1267_4918" x1="-28.0118" y1="901.199" x2="545.268" y2="1317.71" gradientUnits="userSpaceOnUse">
<stop offset="0.32" stop-color="#0EAB4B"/>
<stop offset="1" stop-color="#91F165"/>
</linearGradient>
<linearGradient id="paint46_linear_1267_4918" x1="-35.0793" y1="890.522" x2="507.553" y2="1329.94" gradientUnits="userSpaceOnUse">
<stop offset="0.32" stop-color="#0EAB4B"/>
<stop offset="1" stop-color="#91F165"/>
</linearGradient>
<linearGradient id="paint47_linear_1267_4918" x1="-41.7597" y1="880.832" x2="469.422" y2="1341.1" gradientUnits="userSpaceOnUse">
<stop offset="0.32" stop-color="#0EAB4B"/>
<stop offset="1" stop-color="#91F165"/>
</linearGradient>
<linearGradient id="paint48_linear_1267_4918" x1="-48.1144" y1="872.139" x2="430.942" y2="1351.19" gradientUnits="userSpaceOnUse">
<stop offset="0.32" stop-color="#0EAB4B"/>
<stop offset="1" stop-color="#91F165"/>
</linearGradient>
<linearGradient id="paint49_linear_1267_4918" x1="-54.2073" y1="864.448" x2="392.178" y2="1360.21" gradientUnits="userSpaceOnUse">
<stop offset="0.32" stop-color="#0EAB4B"/>
<stop offset="1" stop-color="#91F165"/>
</linearGradient>
<linearGradient id="paint50_linear_1267_4918" x1="-60.0989" y1="857.763" x2="353.199" y2="1368.14" gradientUnits="userSpaceOnUse">
<stop offset="0.32" stop-color="#0EAB4B"/>
<stop offset="1" stop-color="#91F165"/>
</linearGradient>
<linearGradient id="paint51_linear_1267_4918" x1="-65.8515" y1="852.081" x2="314.071" y2="1375" gradientUnits="userSpaceOnUse">
<stop offset="0.32" stop-color="#0EAB4B"/>
<stop offset="1" stop-color="#91F165"/>
</linearGradient>
<linearGradient id="paint52_linear_1267_4918" x1="-71.5253" y1="847.398" x2="274.858" y2="1380.78" gradientUnits="userSpaceOnUse">
<stop offset="0.32" stop-color="#0EAB4B"/>
<stop offset="1" stop-color="#91F165"/>
</linearGradient>
<linearGradient id="paint53_linear_1267_4918" x1="-77.1809" y1="843.704" x2="235.625" y2="1385.5" gradientUnits="userSpaceOnUse">
<stop offset="0.32" stop-color="#0EAB4B"/>
<stop offset="1" stop-color="#91F165"/>
</linearGradient>
<linearGradient id="paint54_linear_1267_4918" x1="-82.8764" y1="840.988" x2="196.436" y2="1389.17" gradientUnits="userSpaceOnUse">
<stop offset="0.32" stop-color="#0EAB4B"/>
<stop offset="1" stop-color="#91F165"/>
</linearGradient>
<linearGradient id="paint55_linear_1267_4918" x1="-88.6697" y1="839.233" x2="157.35" y2="1391.8" gradientUnits="userSpaceOnUse">
<stop offset="0.32" stop-color="#0EAB4B"/>
<stop offset="1" stop-color="#91F165"/>
</linearGradient>
<linearGradient id="paint56_linear_1267_4918" x1="-94.6153" y1="838.421" x2="118.43" y2="1393.42" gradientUnits="userSpaceOnUse">
<stop offset="0.32" stop-color="#0EAB4B"/>
<stop offset="1" stop-color="#91F165"/>
</linearGradient>
<linearGradient id="paint57_linear_1267_4918" x1="-100.769" y1="838.53" x2="79.732" y2="1394.05" gradientUnits="userSpaceOnUse">
<stop offset="0.32" stop-color="#0EAB4B"/>
<stop offset="1" stop-color="#91F165"/>
</linearGradient>
<linearGradient id="paint58_linear_1267_4918" x1="-107.181" y1="839.534" x2="41.3129" y2="1393.72" gradientUnits="userSpaceOnUse">
<stop offset="0.32" stop-color="#0EAB4B"/>
<stop offset="1" stop-color="#91F165"/>
</linearGradient>
<linearGradient id="paint59_linear_1267_4918" x1="-113.903" y1="841.406" x2="3.22645" y2="1392.46" gradientUnits="userSpaceOnUse">
<stop offset="0.32" stop-color="#0EAB4B"/>
<stop offset="1" stop-color="#91F165"/>
</linearGradient>
<linearGradient id="paint60_linear_1267_4918" x1="-120.982" y1="844.114" x2="-34.4759" y2="1390.29" gradientUnits="userSpaceOnUse">
<stop offset="0.32" stop-color="#0EAB4B"/>
<stop offset="1" stop-color="#91F165"/>
</linearGradient>
<linearGradient id="paint61_linear_1267_4918" x1="-128.464" y1="847.626" x2="-71.7458" y2="1387.27" gradientUnits="userSpaceOnUse">
<stop offset="0.32" stop-color="#0EAB4B"/>
<stop offset="1" stop-color="#91F165"/>
</linearGradient>
<linearGradient id="paint62_linear_1267_4918" x1="-136.391" y1="851.905" x2="-108.536" y2="1383.41" gradientUnits="userSpaceOnUse">
<stop offset="0.32" stop-color="#0EAB4B"/>
<stop offset="1" stop-color="#91F165"/>
</linearGradient>
<linearGradient id="paint63_linear_1267_4918" x1="-144.805" y1="856.914" x2="-144.805" y2="1378.78" gradientUnits="userSpaceOnUse">
<stop offset="0.32" stop-color="#0EAB4B"/>
<stop offset="1" stop-color="#91F165"/>
</linearGradient>
<linearGradient id="paint64_linear_1267_4918" x1="-153.741" y1="862.612" x2="-180.51" y2="1373.4" gradientUnits="userSpaceOnUse">
<stop offset="0.32" stop-color="#0EAB4B"/>
<stop offset="1" stop-color="#91F165"/>
</linearGradient>
<linearGradient id="paint65_linear_1267_4918" x1="-163.236" y1="868.958" x2="-215.616" y2="1367.33" gradientUnits="userSpaceOnUse">
<stop offset="0.32" stop-color="#0EAB4B"/>
<stop offset="1" stop-color="#91F165"/>
</linearGradient>
<linearGradient id="paint66_linear_1267_4918" x1="-173.32" y1="875.907" x2="-250.088" y2="1360.6" gradientUnits="userSpaceOnUse">
<stop offset="0.32" stop-color="#0EAB4B"/>
<stop offset="1" stop-color="#91F165"/>
</linearGradient>
<linearGradient id="paint67_linear_1267_4918" x1="-184.022" y1="883.415" x2="-283.895" y2="1353.28" gradientUnits="userSpaceOnUse">
<stop offset="0.32" stop-color="#0EAB4B"/>
<stop offset="1" stop-color="#91F165"/>
</linearGradient>
<linearGradient id="paint68_linear_1267_4918" x1="-195.369" y1="891.434" x2="-317.011" y2="1345.41" gradientUnits="userSpaceOnUse">
<stop offset="0.32" stop-color="#0EAB4B"/>
<stop offset="1" stop-color="#91F165"/>
</linearGradient>
</defs>
</svg>
