<svg width="151" height="45" viewBox="0 0 151 45" fill="none" xmlns="http://www.w3.org/2000/svg">
<g clip-path="url(#clip0_1267_5306)">
<g clip-path="url(#clip1_1267_5306)">
<path fill-rule="evenodd" clip-rule="evenodd" d="M24.7997 0L0.227539 21.8988L5.4605 27.018L15.187 18.1447L24.4584 27.1886L29.8051 22.5245L20.1924 13.1962L29.8051 4.8348L24.7997 0Z" fill="white"/>
<path fill-rule="evenodd" clip-rule="evenodd" d="M14.5551 26.7083L28.5286 40.1109L23.934 44.2799L9.77295 31.0648L14.5551 26.7083Z" fill="#999999"/>
<path fill-rule="evenodd" clip-rule="evenodd" d="M33.6269 26.2849L38.5333 31.1576L33.7238 35.51L28.8511 30.8964L33.6269 26.2849Z" fill="#999999"/>
<path fill-rule="evenodd" clip-rule="evenodd" d="M34.261 9.10718L48.323 22.5814L43.6567 26.721L29.561 13.2152L34.261 9.10718Z" fill="#999999"/>
<path d="M56.4504 7.15628V18.4417H60.0149V7.15628H64.8729V4.59668H51.5903V7.15628H56.4504Z" fill="white"/>
<path d="M66.7354 4.59668V18.4417H79.0425V15.8821H70.2998V12.4882H78.1556V10.1225H70.2998V7.15628H78.8613V4.59668H66.7354Z" fill="white"/>
<path d="M81.4482 4.59668V18.4417H85.0127V13.9819L87.0562 12.2165L91.9394 18.4417H96.4119L89.4641 10.0656L95.7988 4.59668H91.3475L85.0127 10.3373V4.59668H81.4482Z" fill="white"/>
<path d="M97.8398 4.59668V18.4417H110.147V15.8821H101.406V12.4882H109.262V10.1225H101.406V7.15628H109.966V4.59668H97.8398Z" fill="white"/>
<path d="M116.12 15.8822V7.15637H118.662C119.549 7.15637 120.274 7.25327 120.887 7.46605C121.477 7.67882 121.953 7.9885 122.317 8.39719C122.682 8.80378 122.954 9.26935 123.112 9.83183C123.27 10.3943 123.339 11.0347 123.339 11.732C123.339 12.4883 123.225 13.1477 122.998 13.6702C122.77 14.1947 122.475 14.6203 122.09 14.9489C121.704 15.2776 121.273 15.5304 120.796 15.6673C120.32 15.8021 119.821 15.8801 119.299 15.8801H116.12V15.8822ZM112.555 4.59888V18.4418H119.549C120.799 18.4418 121.865 18.2669 122.796 17.8983C123.704 17.5485 124.477 17.064 125.09 16.4447C125.703 15.8232 126.158 15.088 126.453 14.2348C126.748 13.3816 126.906 12.4504 126.906 11.4434C126.906 10.2995 126.725 9.29042 126.362 8.43722C125.977 7.58402 125.475 6.86565 124.818 6.30528C124.161 5.7428 123.364 5.31725 122.48 5.02653C121.572 4.73581 120.594 4.60098 119.551 4.60098H112.557L112.555 4.59888Z" fill="white"/>
<path d="M129.379 4.59668V18.4417H132.943V4.59668H129.379Z" fill="white"/>
<path d="M140.163 13.0908L142.274 8.00957H142.32L144.364 13.0908H140.163ZM140.504 4.59888L134.374 18.4418H137.962L139.234 15.3597H145.295L146.521 18.4418H150.222L144.159 4.59888H140.504Z" fill="white"/>
<path d="M58.915 25.0041C60.5667 25.0041 61.8559 25.3769 62.7618 26.1227C63.6698 26.8685 64.1775 27.7069 64.2681 28.6528H62.5617C62.3615 27.9386 61.9613 27.3635 61.3819 26.9443C60.8005 26.5251 59.9831 26.3228 58.9319 26.3228C57.6616 26.3228 56.6272 26.6957 55.8288 27.471C55.0493 28.2462 54.649 29.4281 54.649 31.0102C54.649 32.3142 55.0114 33.3696 55.7213 34.1933C56.4292 35.0002 57.4994 35.4047 58.8961 35.4047C60.2022 35.4047 61.2008 34.9854 61.8728 34.1322C62.2351 33.6814 62.509 33.0915 62.6712 32.3458H64.3945C64.2491 33.5255 63.7414 34.5051 62.8692 35.2951C61.8349 36.2579 60.4382 36.7382 58.6959 36.7382C57.1728 36.7382 55.9004 36.3337 54.885 35.5585C53.5241 34.5178 52.8521 32.9188 52.8521 30.7616C52.8521 29.1163 53.3598 27.7659 54.3752 26.7252C55.4643 25.5771 56.9895 25.002 58.9129 25.002L58.915 25.0041Z" fill="#999999"/>
<path d="M67.5567 34.288C67.5567 34.6756 67.721 34.9874 68.0644 35.2191C68.3909 35.4509 68.7891 35.5604 69.261 35.5604C69.8234 35.5604 70.3501 35.4509 70.8768 35.2191C71.7658 34.861 72.2208 34.2564 72.2208 33.4179V32.3161C72.0207 32.4236 71.7679 32.5015 71.4582 32.5795C71.1506 32.6574 70.8599 32.7038 70.5502 32.7354L69.5896 32.8449C69.0082 32.9081 68.5721 33.0008 68.2835 33.1546C67.7926 33.3884 67.5567 33.7592 67.5567 34.288ZM71.4224 31.524C71.7847 31.4924 72.0207 31.3534 72.1492 31.1364C72.2208 31.0121 72.2587 30.8415 72.2587 30.6076C72.2587 30.1421 72.0586 29.8008 71.6773 29.5985C71.296 29.3816 70.7335 29.2889 70.0257 29.2889C69.1914 29.2889 68.5931 29.4742 68.2477 29.864C68.0475 30.0662 67.9211 30.3927 67.8663 30.812H66.379C66.4149 29.8029 66.7793 29.1035 67.523 28.7158C68.2498 28.3282 69.084 28.126 70.0636 28.126C71.1696 28.126 72.0776 28.3114 72.7664 28.6842C73.4743 29.0403 73.8198 29.6006 73.8198 30.3759V35.0485C73.8198 35.1875 73.8366 35.3118 73.9104 35.3898C73.982 35.4825 74.1295 35.5141 74.3464 35.5141C74.4181 35.5141 74.4918 35.5141 74.5824 35.5141C74.673 35.4993 74.7636 35.4825 74.8731 35.4677V36.4768C74.6182 36.54 74.437 36.5863 74.2917 36.6011C74.1653 36.6158 73.9841 36.6158 73.765 36.6158C73.2194 36.6158 72.8212 36.4452 72.5663 36.1187C72.4378 35.948 72.3472 35.6847 72.2946 35.3729C71.968 35.731 71.4961 36.0407 70.8978 36.3209C70.2806 36.5842 69.6086 36.7254 68.8818 36.7254C68.0096 36.7254 67.2849 36.4915 66.7224 36.026C66.1599 35.5751 65.8882 35.0021 65.8882 34.3175C65.8882 33.557 66.1599 32.9818 66.7035 32.5626C67.2659 32.1434 67.9738 31.8948 68.8818 31.8021L71.4224 31.524Z" fill="#999999"/>
<path d="M80.4283 35.529C81.1719 35.529 81.7892 35.2656 82.28 34.7221C82.7877 34.1933 83.0237 33.4012 83.0237 32.331C83.0237 31.6948 82.9141 31.1366 82.6971 30.671C82.28 29.7693 81.5364 29.3354 80.4283 29.3354C79.3201 29.3354 78.5765 29.8009 78.1594 30.7489C77.9424 31.2461 77.8328 31.8971 77.8328 32.6744C77.8328 33.2959 77.9424 33.8394 78.1594 34.2734C78.5765 35.1118 79.3391 35.5311 80.4283 35.5311V35.529ZM76.3076 28.3558H77.8497V29.4428C78.1762 29.0699 78.5217 28.7918 78.903 28.5896C79.4297 28.2799 80.0638 28.124 80.7906 28.124C81.8608 28.124 82.7856 28.4822 83.5314 29.1795C84.275 29.8936 84.6563 30.9027 84.6563 32.2067C84.6563 33.9763 84.1128 35.234 83.0405 35.9945C82.3516 36.4748 81.5532 36.7234 80.6452 36.7234C79.9184 36.7234 79.3201 36.5844 78.8483 36.319C78.5575 36.1631 78.2479 35.8997 77.9045 35.5268V39.6728H76.3076V28.3558Z" fill="#999999"/>
<path d="M86.5103 28.3579H88.1429V36.4474H86.5103V28.3579ZM86.5103 25.3137H88.1429V26.8516H86.5103V25.3137Z" fill="#999999"/>
<path d="M90.8689 26.0593H92.4847V28.3261H93.9909V29.4426H92.4847V34.7367C92.4847 35.0169 92.5942 35.2191 92.8112 35.3118C92.9397 35.3581 93.1567 35.3897 93.4474 35.3897C93.5191 35.3897 93.5928 35.3897 93.6834 35.3897C93.774 35.3897 93.8835 35.375 93.9909 35.375V36.4473C93.8098 36.4936 93.6286 36.5252 93.4285 36.54C93.2283 36.5716 93.0113 36.5716 92.7923 36.5716C92.0296 36.5716 91.5409 36.4157 91.2691 36.0913C90.9974 35.7647 90.8689 35.3455 90.8689 34.8188V29.4468H89.5796V28.3303H90.8689V26.0635V26.0593Z" fill="#999999"/>
<path d="M96.8182 34.288C96.8182 34.6756 96.9825 34.9874 97.3259 35.2191C97.6525 35.4509 98.0527 35.5604 98.5246 35.5604C99.0871 35.5604 99.6138 35.4509 100.14 35.2191C101.029 34.861 101.482 34.2564 101.482 33.4179V32.3161C101.282 32.4236 101.029 32.5015 100.72 32.5795C100.412 32.6574 100.119 32.7038 99.8118 32.7354L98.8512 32.8449C98.2697 32.9081 97.8336 33.0008 97.545 33.1546C97.0542 33.3884 96.8182 33.7592 96.8182 34.288ZM100.684 31.524C101.046 31.4924 101.282 31.3534 101.411 31.1364C101.482 31.0121 101.52 30.8415 101.52 30.6076C101.52 30.1421 101.32 29.8008 100.939 29.5985C100.558 29.3816 99.9951 29.2889 99.2872 29.2889C98.453 29.2889 97.8547 29.4742 97.5092 29.864C97.3091 30.0662 97.1827 30.3927 97.1279 30.812H95.6406C95.6764 29.8029 96.0388 29.1035 96.7845 28.7158C97.5113 28.3282 98.3456 28.126 99.3252 28.126C100.431 28.126 101.339 28.3114 102.03 28.6842C102.738 29.0403 103.083 29.6006 103.083 30.3759V35.0485C103.083 35.1875 103.1 35.3118 103.174 35.3898C103.246 35.4825 103.391 35.5141 103.61 35.5141C103.682 35.5141 103.755 35.5141 103.846 35.5141C103.937 35.4993 104.027 35.4825 104.137 35.4677V36.4768C103.882 36.54 103.701 36.5863 103.555 36.6011C103.429 36.6158 103.248 36.6158 103.029 36.6158C102.483 36.6158 102.085 36.4452 101.83 36.1187C101.701 35.948 101.613 35.6847 101.558 35.3729C101.232 35.731 100.76 36.0407 100.162 36.3209C99.5443 36.5842 98.8722 36.7254 98.1454 36.7254C97.2754 36.7254 96.5486 36.4915 95.9861 36.026C95.4236 35.5751 95.1519 35.0021 95.1519 34.3175C95.1519 33.557 95.4236 32.9818 95.9692 32.5626C96.5317 32.1434 97.2396 31.8948 98.1475 31.8021L100.688 31.524H100.684Z" fill="#999999"/>
<path d="M105.731 25.3137H107.328V36.4453H105.731V25.3137Z" fill="#999999"/>
</g>
</g>
<defs>
<clipPath id="clip0_1267_5306">
<rect width="150" height="44.28" fill="white" transform="translate(0.224609)"/>
</clipPath>
<clipPath id="clip1_1267_5306">
<rect width="149.995" height="44.28" fill="white" transform="translate(0.227051)"/>
</clipPath>
</defs>
</svg>
